<?xml version="1.0" standalone="no"?>
<!DOCTYPE svg PUBLIC "-//W3C//DTD SVG 20010904//EN"
 "http://www.w3.org/TR/2001/REC-SVG-20010904/DTD/svg10.dtd">
<svg version="1.0" xmlns="http://www.w3.org/2000/svg"
 width="954.000000pt" height="940.000000pt" viewBox="0 0 954.000000 940.000000"
 preserveAspectRatio="xMidYMid meet">
<metadata>
Created by potrace 1.16, written by Peter Selinger 2001-2019
</metadata>
<g transform="translate(0.000000,940.000000) scale(0.100000,-0.100000)"
fill="#000000" stroke="none">
<path d="M4780 9389 c-174 -9 -433 -60 -487 -95 -12 -8 -66 -31 -120 -53 -227
-90 -279 -114 -301 -138 -12 -13 -20 -29 -17 -34 4 -5 -4 -13 -17 -18 -13 -4
-23 -17 -23 -27 0 -12 -6 -18 -16 -16 -20 3 -43 -23 -34 -38 4 -7 12 -7 26 0
25 14 24 2 -3 -50 -22 -41 -22 -42 -3 -53 31 -17 45 -17 64 1 39 37 76 62 79
52 2 -5 7 -10 12 -10 13 0 50 64 40 70 -5 3 4 21 20 40 16 19 32 31 36 27 4
-4 2 -13 -4 -19 -18 -18 -15 -28 7 -28 11 0 22 -4 25 -9 8 -12 -29 -42 -45
-36 -8 2 -27 -11 -44 -31 -16 -20 -43 -52 -59 -70 -28 -34 -28 -34 -5 -34 21
0 19 -4 -20 -44 -23 -24 -55 -50 -69 -57 -15 -8 -31 -18 -35 -24 -5 -6 -6 0
-3 14 l5 24 -28 -27 c-25 -24 -29 -25 -35 -10 -5 13 6 31 39 64 66 67 55 71
-17 6 -34 -31 -65 -56 -69 -56 -4 0 -24 -25 -44 -55 -21 -31 -42 -52 -48 -48
-6 4 -3 12 9 23 20 17 48 60 42 65 -2 2 -13 -5 -26 -15 -26 -21 -56 -86 -46
-101 3 -5 1 -16 -6 -24 -13 -16 -24 -89 -12 -81 4 2 19 27 32 55 13 28 30 51
37 51 8 0 11 -4 8 -10 -3 -5 -1 -10 6 -10 7 0 3 -9 -9 -20 -12 -12 -22 -26
-22 -32 0 -7 -10 -22 -22 -35 -12 -13 -18 -26 -14 -30 4 -4 11 -1 16 7 7 10
10 11 10 3 0 -7 10 -13 23 -13 17 0 30 11 46 40 12 22 26 38 30 35 13 -7 47
28 44 46 -2 8 5 24 17 34 11 10 20 25 20 34 0 25 60 83 80 78 12 -3 26 6 39
24 12 16 31 34 44 40 20 11 21 11 7 -6 -8 -10 -15 -23 -15 -29 0 -6 -8 -26
-18 -44 -18 -33 -18 -33 2 -23 11 6 25 11 30 11 11 0 10 -4 -23 -67 -9 -17
-16 -39 -16 -50 1 -16 3 -16 19 4 11 13 32 28 47 33 l29 11 -28 -27 c-32 -29
-29 -48 3 -19 15 13 20 14 20 5 0 -11 3 -11 12 -2 15 15 52 16 43 2 -4 -6 -10
-8 -14 -5 -5 2 -16 -4 -26 -15 -10 -11 -23 -20 -29 -20 -7 0 -18 -10 -26 -22
-15 -21 -25 -33 -84 -96 -26 -28 -27 -31 -8 -29 11 0 28 14 37 29 9 15 20 28
26 28 14 0 11 -8 -15 -47 -14 -19 -22 -41 -20 -47 3 -7 -7 -22 -21 -34 -14
-12 -25 -29 -25 -38 0 -11 -6 -14 -20 -9 -36 11 -110 -90 -110 -150 0 -14 -4
-25 -10 -25 -5 0 -10 -7 -10 -16 0 -8 -4 -13 -9 -10 -5 4 -7 20 -5 36 3 18 1
30 -6 30 -6 0 -10 12 -9 28 1 15 1 51 1 80 -2 62 -19 68 -62 22 -15 -16 -32
-30 -38 -30 -10 0 -26 -29 -24 -42 2 -10 -12 -10 -21 -2 -6 6 19 64 32 74 4 3
14 23 22 45 15 41 12 81 -6 79 -18 -1 -59 -23 -81 -41 -25 -20 -66 -97 -62
-116 1 -7 -2 -30 -6 -52 -14 -67 -22 -225 -12 -228 15 -5 35 -112 46 -242 5
-66 12 -154 15 -195 6 -79 10 -98 45 -220 12 -41 24 -95 28 -120 4 -25 10 -40
14 -35 7 11 39 177 58 298 17 110 35 142 111 203 38 30 73 52 79 49 5 -3 19 0
30 7 15 10 22 10 28 1 5 -8 23 -1 57 23 32 21 57 31 69 28 23 -7 96 24 96 42
0 7 14 22 30 34 24 17 30 18 30 6 0 -8 -12 -22 -27 -31 -27 -15 -27 -16 -3
-10 45 12 90 36 103 56 6 10 20 19 29 19 10 0 18 5 18 11 0 5 -4 7 -10 4 -18
-11 -11 21 13 55 12 18 32 40 44 48 21 13 23 13 30 -3 3 -10 1 -31 -5 -48
l-11 -30 27 24 c15 13 34 32 42 41 16 18 56 21 77 5 7 -5 19 -7 27 -4 17 7 42
-18 27 -27 -5 -4 -9 -25 -8 -47 l1 -41 36 6 c19 3 41 6 48 6 7 0 11 3 9 8 -3
4 8 8 24 9 16 1 29 -1 29 -6 0 -4 25 -6 55 -3 38 3 62 0 77 -10 28 -18 104
-16 138 3 36 20 62 19 67 -2 3 -11 10 -19 17 -20 6 -1 27 -3 46 -4 19 -2 46
-6 60 -9 14 -3 77 -13 140 -21 175 -24 184 -26 198 -37 8 -7 16 -7 26 1 10 8
16 8 25 -2 6 -8 9 -16 6 -19 -3 -2 2 -5 10 -5 8 0 15 6 15 14 0 7 3 13 8 14
64 5 78 10 103 35 45 46 55 52 85 54 46 3 54 1 54 -15 0 -18 -17 -20 -22 -3
-3 7 -7 6 -11 -5 -4 -11 -1 -17 8 -17 8 0 16 -8 17 -17 0 -10 2 -22 3 -28 2
-5 3 -16 4 -22 0 -7 11 -13 24 -13 13 0 48 -12 78 -26 33 -16 78 -28 114 -31
46 -4 65 -10 82 -28 12 -13 31 -26 42 -30 11 -3 23 -16 27 -28 4 -12 11 -25
16 -28 5 -3 20 -38 33 -78 35 -103 57 -409 45 -616 -16 -268 -46 -463 -76
-492 -7 -7 -15 -18 -18 -25 -5 -10 -7 -10 -12 0 -9 19 -23 14 -17 -7 6 -23
-15 -101 -27 -101 -6 0 -10 -13 -10 -30 0 -16 -14 -60 -31 -96 -24 -53 -27
-69 -17 -76 10 -6 6 -14 -17 -33 -16 -14 -36 -25 -43 -25 -7 0 -10 -5 -7 -11
5 -7 13 -5 25 6 17 16 18 16 15 -2 -2 -10 -4 -22 -4 -26 -1 -5 -5 -6 -10 -2
-6 3 -15 -3 -20 -14 -14 -25 -14 -34 -1 -26 6 3 7 -1 4 -10 -9 -22 -51 -39
-93 -37 -19 1 -38 -4 -43 -11 -5 -7 -8 -8 -8 -1 0 12 67 104 76 104 2 0 -2
-13 -11 -30 -20 -38 -19 -46 4 -46 10 0 17 6 14 12 -2 7 1 15 8 20 8 5 10 3 4
-7 -4 -8 0 -6 11 3 13 13 15 21 7 29 -7 7 -9 26 -6 47 l6 35 -31 -23 c-18 -13
-32 -29 -32 -36 0 -19 -29 -25 -38 -7 -11 19 -28 11 -35 -18 -5 -20 -5 -20 14
-3 18 16 19 16 19 -2 0 -21 -39 -77 -40 -56 0 6 -7 12 -16 12 -8 0 -13 -3 -11
-7 3 -5 1 -18 -4 -31 -6 -16 -14 -22 -26 -18 -23 7 -39 -3 -48 -32 -6 -22 -5
-23 15 -12 17 9 24 9 30 0 4 -6 11 -11 16 -10 5 1 11 -9 15 -22 4 -18 11 -22
30 -19 13 1 32 7 42 12 13 8 17 6 17 -8 -1 -22 -46 -57 -66 -49 -9 3 -14 -1
-14 -13 0 -10 -7 -21 -15 -25 -10 -4 -15 1 -15 14 0 25 -18 26 -27 3 -4 -10
-18 -33 -31 -51 -23 -30 -26 -31 -42 -17 -21 19 -39 19 -46 0 -4 -9 -19 -15
-40 -15 -33 0 -45 -12 -24 -25 5 -3 6 -13 3 -22 -5 -12 -3 -14 8 -8 8 5 11 4
6 0 -15 -17 -36 -13 -32 5 3 14 -1 18 -17 15 -11 -3 -23 -7 -26 -10 -3 -3 -16
2 -28 10 -23 15 -23 14 -14 -10 8 -22 7 -24 -10 -22 -11 2 -25 8 -32 15 -12
12 -75 -15 -110 -48 -19 -18 -21 -18 -53 1 -18 11 -36 27 -39 35 -4 10 -2 13
7 8 6 -4 3 2 -7 14 -28 33 -45 28 -40 -10 2 -18 1 -26 -3 -18 -3 8 -12 19 -19
23 -8 4 -14 13 -14 18 0 6 6 7 13 3 6 -4 8 -3 4 1 -13 15 -37 14 -37 -1 0 -21
-18 -17 -47 10 -29 27 -50 25 -55 -7 -2 -16 -9 -21 -25 -20 -15 2 -28 -7 -40
-27 -17 -30 -33 -39 -33 -20 0 18 -19 10 -25 -11 -5 -14 -12 -18 -23 -14 -10
4 -24 7 -32 8 -8 0 -20 4 -26 8 -7 6 -17 3 -25 -7 -12 -15 -14 -15 -19 7 -7
28 -68 49 -81 27 -5 -7 -4 -15 2 -16 6 -3 6 -9 -2 -18 -13 -16 -35 -19 -41 -6
-1 5 -18 12 -35 15 -25 5 -33 3 -33 -8 0 -17 -16 -20 -25 -5 -8 13 -45 13 -45
0 0 -6 6 -13 13 -16 8 -3 14 -10 15 -17 8 -60 7 -61 -20 -62 -34 -2 -36 8 -6
29 12 9 19 18 16 21 -10 10 -35 -6 -46 -31 -7 -13 -17 -24 -24 -24 -9 0 -9 3
0 12 27 27 13 36 -54 36 -37 0 -69 4 -73 9 -6 11 -59 23 -128 29 -41 4 -93 40
-93 64 0 6 -18 21 -40 35 -22 14 -40 31 -40 38 0 6 -18 30 -41 52 -22 22 -51
51 -65 64 -21 21 -24 21 -24 6 0 -15 -3 -15 -15 -5 -13 11 -13 15 -3 21 10 7
10 9 1 9 -7 0 -13 6 -13 14 0 9 -7 12 -19 9 -15 -4 -20 1 -23 22 -2 20 -13 33
-38 46 -19 11 -47 34 -62 51 -35 43 -35 34 2 -35 66 -125 132 -212 252 -334
235 -238 318 -325 318 -333 0 -5 9 -12 20 -15 11 -3 20 -12 20 -20 0 -12 65
-44 85 -41 6 0 9 7 8 14 -1 10 5 12 20 7 12 -4 35 -8 50 -10 16 -2 29 -5 30
-7 1 -1 12 -17 24 -34 14 -21 18 -35 12 -41 -10 -10 30 -43 57 -47 8 -1 20 -8
27 -16 9 -10 9 -11 0 -6 -8 4 -13 1 -13 -8 0 -21 17 -20 29 2 6 10 11 12 11 4
0 -9 5 -10 18 -3 11 6 33 6 55 1 21 -4 37 -4 37 1 0 5 6 9 13 9 7 0 13 10 14
21 2 27 3 28 44 34 33 5 76 -12 53 -21 -6 -3 -19 -10 -28 -17 -16 -12 -15 -13
6 -15 13 -1 33 -2 46 -2 12 0 22 -6 22 -14 0 -19 54 -30 79 -17 26 14 101 14
101 0 0 -5 4 -8 9 -4 5 3 17 -2 25 -11 11 -10 29 -14 54 -12 33 2 37 0 34 -19
-2 -18 1 -21 17 -18 26 5 27 -9 3 -27 -9 -7 -23 -25 -29 -40 -11 -23 -10 -29
5 -38 16 -9 16 -11 -2 -24 -10 -8 -15 -20 -11 -26 3 -6 1 -9 -6 -8 -17 4 -19
-60 -2 -74 9 -8 10 -13 3 -18 -14 -9 -22 -50 -9 -50 6 0 4 -7 -5 -15 -17 -18
-11 -45 10 -45 8 0 14 -3 15 -7 0 -5 3 -19 5 -33 2 -14 4 -39 4 -56 0 -17 6
-36 14 -43 11 -9 44 20 174 154 238 245 374 420 468 603 24 48 47 106 51 128
7 50 -9 35 -26 -25 -7 -24 -24 -60 -37 -80 -28 -43 -119 -115 -133 -107 -5 4
-19 -3 -30 -15 -14 -16 -24 -19 -37 -11 -9 5 -25 7 -35 5 -28 -8 -23 12 8 35
32 23 26 40 -7 22 -12 -6 -34 -14 -48 -16 -15 -3 -32 -10 -38 -15 -13 -11 -60
-22 -50 -12 4 4 13 8 21 9 19 3 102 61 107 75 2 6 17 12 33 12 27 0 28 0 10
13 -18 14 -18 14 0 27 10 8 15 19 11 25 -6 11 6 16 27 13 6 -1 8 6 7 25 -1 3
9 13 22 23 19 16 20 21 9 35 -11 13 -11 19 0 33 12 15 12 16 -1 8 -13 -8 -12
-5 1 15 12 18 13 30 6 41 -8 13 5 31 64 90 66 66 95 108 176 247 12 20 28 44
36 52 26 27 106 193 142 295 10 28 29 62 42 76 13 14 25 35 28 47 2 12 7 27
10 32 4 6 9 23 11 38 3 15 11 32 19 38 19 14 19 42 0 74 -27 47 -15 91 15 55
27 -33 43 -13 97 113 8 19 37 71 65 115 84 133 99 174 100 267 1 99 -17 133
-75 138 -69 6 -70 4 -68 -177 2 -152 1 -167 -25 -243 -39 -117 -123 -205 -124
-130 0 6 12 22 26 34 14 13 38 46 55 74 41 73 41 145 -1 200 -30 40 -39 79
-19 86 6 2 8 14 4 31 -7 28 -19 35 -30 17 -9 -15 -25 -12 -25 5 0 9 11 38 25
64 20 40 32 52 62 61 48 16 82 46 80 72 -1 21 -17 21 -104 3 -42 -9 -42 2 -5
81 53 112 63 159 82 424 10 146 6 468 -8 565 -5 33 -8 74 -7 90 1 17 -4 41
-11 55 -20 43 -26 101 -25 243 0 149 -1 154 -68 237 -11 14 -21 31 -21 38 0 6
-4 12 -10 12 -5 0 -10 9 -10 21 0 12 -8 23 -20 26 -11 3 -20 14 -20 24 0 10
-10 25 -22 33 -12 8 -22 25 -23 37 -2 31 -32 49 -45 29 -8 -13 -11 -11 -16 7
-3 11 -13 24 -22 27 -10 3 -28 13 -42 23 -13 10 -21 12 -16 6 5 -9 -1 -13 -18
-13 -19 0 -26 5 -26 19 0 14 -11 23 -37 32 -21 7 -58 25 -83 40 -25 15 -79 40
-120 54 -41 15 -80 32 -87 37 -7 5 -17 7 -23 3 -5 -3 -10 -1 -10 4 0 6 -13 11
-29 11 -17 0 -32 4 -35 9 -7 10 -56 2 -56 -10 0 -5 5 -9 11 -9 6 0 50 -19 98
-42 47 -23 95 -41 105 -40 10 1 29 -5 42 -13 13 -8 39 -15 58 -15 69 0 91 -25
29 -33 -23 -2 -44 1 -53 8 -19 16 -111 36 -136 29 -12 -3 -27 3 -38 15 -11 12
-27 21 -37 21 -35 0 -131 42 -136 59 -5 19 -51 37 -96 40 -15 0 -38 6 -50 13
-12 7 -26 11 -30 10 -31 -9 -107 -10 -112 -2 -3 6 -41 8 -90 6 -46 -2 -86 -1
-90 2 -9 9 -63 10 -225 1z m546 -38 c-3 -5 -15 -7 -26 -4 -28 7 -25 13 6 13
14 0 23 -4 20 -9z m-1006 -81 c0 -5 -5 -10 -11 -10 -5 0 -7 5 -4 10 3 6 8 10
11 10 2 0 4 -4 4 -10z m1650 -101 c0 -9 -32 -17 -47 -12 -24 8 -13 20 17 20
17 0 30 -4 30 -8z m-1550 -19 c-8 -5 -22 -10 -30 -10 -13 0 -13 1 0 10 8 5 22
10 30 10 13 0 13 -1 0 -10z m-320 -24 c0 -3 -4 -8 -10 -11 -5 -3 -10 -1 -10 4
0 6 5 11 10 11 6 0 10 -2 10 -4z m305 -6 c3 -5 1 -10 -4 -10 -6 0 -11 5 -11
10 0 6 2 10 4 10 3 0 8 -4 11 -10z m-315 -94 c0 -2 -7 -6 -15 -10 -8 -3 -15
-1 -15 4 0 6 7 10 15 10 8 0 15 -2 15 -4z m180 -56 c0 -5 -7 -10 -16 -10 -8 0
-12 5 -9 10 3 6 10 10 16 10 5 0 9 -4 9 -10z m-45 -10 c-3 -5 -12 -10 -18 -10
-7 0 -6 4 3 10 19 12 23 12 15 0z m-55 -9 c0 -11 -61 -43 -68 -37 -2 3 11 14
29 25 39 24 39 24 39 12z m1395 -91 c12 -20 -15 -9 -42 16 l-28 27 32 -17 c17
-9 35 -20 38 -26z m-1753 8 c-7 -7 -12 -8 -12 -2 0 14 12 26 19 19 2 -3 -1
-11 -7 -17z m1726 -37 c3 -8 -1 -12 -9 -9 -7 2 -15 10 -17 17 -3 8 1 12 9 9 7
-2 15 -10 17 -17z m-1556 -166 c0 -5 -5 -11 -11 -13 -6 -2 -11 4 -11 13 0 9 5
15 11 13 6 -2 11 -8 11 -13z m-262 -73 c0 -5 -9 -17 -20 -27 -23 -21 -26 -14
-8 15 13 20 28 27 28 12z m326 -66 c-6 -31 -26 -69 -33 -62 -3 3 -2 13 2 23 5
10 7 22 6 27 -2 8 18 36 25 36 3 0 2 -11 0 -24z m402 -53 c-17 -21 -58 -119
-58 -140 0 -12 -2 -12 -15 1 -15 14 -11 46 6 46 4 0 5 7 2 17 -5 12 -3 14 7 8
9 -5 11 -4 6 3 -7 12 42 82 58 82 5 0 2 -8 -6 -17z m-198 -38 c0 -29 7 -32 27
-7 10 12 16 13 19 5 3 -7 13 -9 21 -6 12 5 15 2 10 -10 -4 -11 -2 -14 9 -10
15 6 20 -22 5 -31 -4 -3 -6 -16 -4 -30 3 -13 -1 -27 -8 -31 -9 -6 -11 -2 -6
15 l6 23 -20 -20 c-11 -11 -21 -29 -22 -41 -2 -30 -15 -17 -23 24 -5 25 -10
32 -17 25 -17 -17 -44 -13 -51 6 -4 9 0 31 8 48 8 16 17 38 20 48 8 26 26 21
26 -8z m-252 -12 c-28 -33 -31 -45 -12 -43 45 5 53 0 50 -27 -4 -32 -26 -44
-26 -14 0 11 -5 23 -12 27 -6 4 -8 3 -5 -4 10 -16 -4 -44 -19 -38 -8 3 -11 0
-8 -8 6 -16 -16 -36 -37 -33 -19 3 -55 37 -40 37 6 0 11 4 11 8 0 12 93 112
104 112 5 0 2 -8 -6 -17z m1262 -30 c-1 -24 -2 -26 -11 -10 -5 9 -7 22 -4 27
10 17 15 11 15 -17z m-1080 -4 c0 -6 -5 -19 -10 -30 -8 -15 -7 -19 5 -19 8 0
15 -5 15 -11 0 -7 -9 -9 -22 -6 -14 4 -29 0 -40 -10 -25 -22 -22 -9 8 43 25
42 44 57 44 33z m1131 4 c9 -61 5 -84 -24 -145 -18 -37 -36 -67 -41 -67 -4 -1
-6 5 -3 12 19 47 20 50 9 43 -15 -9 -16 28 -1 56 9 17 13 18 21 7 6 -9 7 6 3
44 -6 53 -5 57 14 57 12 0 21 -3 22 -7z m-1208 -33 c-3 -11 -14 -25 -25 -31
-22 -12 -19 0 10 34 19 22 21 22 15 -3z m1264 -2 c-3 -8 -6 -5 -6 6 -1 11 2
17 5 13 3 -3 4 -12 1 -19z m-926 -31 c-16 -16 -26 0 -10 19 9 11 15 12 17 4 2
-6 -1 -17 -7 -23z m919 -8 c-7 -11 -14 -19 -16 -16 -7 7 7 37 17 37 6 0 5 -9
-1 -21z m-990 -7 c0 -12 -30 -72 -37 -72 -5 0 6 59 14 73 6 10 23 9 23 -1z
m960 -56 c0 -3 -4 -8 -10 -11 -5 -3 -10 -1 -10 4 0 6 5 11 10 11 6 0 10 -2 10
-4z m-690 -36 c-6 -11 -13 -20 -16 -20 -2 0 0 9 6 20 6 11 13 20 16 20 2 0 0
-9 -6 -20z m580 -71 c0 -5 5 -7 11 -3 7 4 10 1 7 -7 -3 -8 -11 -13 -18 -11 -7
2 -17 -3 -23 -10 -6 -9 -7 -8 -3 5 3 10 6 23 6 28 0 5 5 9 10 9 6 0 10 -5 10
-11z m-987 -148 c-5 -19 -43 -61 -43 -47 0 4 7 20 15 36 17 34 36 40 28 11z
m-75 -23 c-2 -6 -12 -12 -22 -14 -14 -2 -15 0 -5 12 14 17 32 19 27 2z m-18
-58 c-6 -11 -15 -18 -21 -14 -6 4 -6 11 2 20 17 21 31 17 19 -6z m90 6 c0 -17
-58 -81 -67 -73 -8 9 17 38 27 32 4 -3 11 2 14 11 5 13 2 15 -14 11 -22 -6
-23 -5 -14 17 8 20 54 21 54 2z m-740 -91 c-7 -9 -15 -13 -17 -11 -7 7 7 26
19 26 6 0 6 -6 -2 -15z m2590 -1790 c10 -12 10 -15 -4 -15 -9 0 -16 7 -16 15
0 8 2 15 4 15 2 0 9 -7 16 -15z m-250 -201 c0 -13 -21 -42 -34 -47 -12 -5 -13
-1 -4 24 5 16 16 29 24 29 8 0 14 -3 14 -6z m97 -57 c0 -7 -10 -14 -21 -14
-21 -2 -21 -2 -2 13 24 17 23 17 23 1z m-1277 -342 c0 -8 -2 -15 -4 -15 -2 0
-6 7 -10 15 -3 8 -1 15 4 15 6 0 10 -7 10 -15z m-303 -201 c-3 -3 -12 -4 -19
-1 -8 3 -5 6 6 6 11 1 17 -2 13 -5z m877 -299 c-4 -8 -10 -15 -14 -15 -4 0
-10 7 -14 15 -4 10 1 15 14 15 13 0 18 -5 14 -15z m126 -47 c0 -4 -7 -8 -15
-8 -8 0 -15 4 -15 8 0 5 7 9 15 9 8 0 15 -4 15 -9z"/>
<path d="M4305 8370 c-3 -5 -1 -10 4 -10 6 0 11 5 11 10 0 6 -2 10 -4 10 -3 0
-8 -4 -11 -10z"/>
<path d="M5430 9373 c0 -13 23 -23 65 -29 22 -2 26 -1 15 6 -8 5 -24 10 -35
10 -12 0 -26 5 -33 12 -8 8 -12 8 -12 1z"/>
<path d="M3731 8914 c-19 -24 -27 -44 -18 -44 12 0 57 59 49 64 -6 3 -20 -6
-31 -20z"/>
<path d="M3781 8584 c-12 -27 -11 -28 4 -12 10 9 16 21 13 28 -2 7 -10 -1 -17
-16z"/>
<path d="M3837 8603 c-4 -3 -7 -11 -7 -17 0 -6 5 -5 12 2 6 6 9 14 7 17 -3 3
-9 2 -12 -2z"/>
<path d="M3810 8561 c0 -5 -22 -36 -50 -69 -27 -32 -47 -62 -44 -64 3 -3 -6
-23 -21 -43 -27 -41 -32 -59 -12 -53 6 3 13 14 15 25 2 11 16 35 32 53 16 18
27 37 24 41 -3 5 0 9 6 9 6 0 8 5 5 10 -3 6 -2 10 3 10 5 0 14 10 20 23 7 12
19 32 28 45 10 13 12 22 5 22 -6 0 -11 -4 -11 -9z"/>
<path d="M3746 8533 c-6 -14 -5 -15 5 -6 7 7 10 15 7 18 -3 3 -9 -2 -12 -12z"/>
<path d="M3852 8534 c-12 -8 -22 -20 -22 -26 0 -6 -8 -21 -17 -32 -9 -12 2 -1
25 23 45 46 50 61 14 35z"/>
<path d="M3498 8442 c-20 -22 -32 -62 -19 -62 5 0 13 9 16 20 3 11 10 20 15
20 11 0 21 28 11 34 -5 3 -15 -2 -23 -12z"/>
<path d="M3605 8388 l-16 -33 21 24 c11 13 20 27 20 32 0 18 -10 8 -25 -23z"/>
<path d="M3720 8365 c-7 -9 -10 -18 -7 -21 3 -3 10 4 17 15 13 25 8 27 -10 6z"/>
<path d="M3755 8349 c-4 -6 -5 -12 -2 -15 2 -3 7 2 10 11 7 17 1 20 -8 4z"/>
<path d="M3708 8283 c-8 -10 -19 -25 -23 -33 -8 -13 -7 -13 9 -1 16 14 41 51
33 51 -2 0 -11 -8 -19 -17z"/>
<path d="M4465 7930 c-3 -5 -1 -10 4 -10 6 0 11 5 11 10 0 6 -2 10 -4 10 -3 0
-8 -4 -11 -10z"/>
<path d="M5615 7700 c-4 -6 1 -22 10 -36 9 -14 15 -27 13 -28 -13 -11 -130
-27 -218 -31 -112 -5 -135 -8 -162 -20 -10 -4 -25 -4 -33 -1 -9 3 -25 0 -35
-6 -15 -10 -22 -10 -32 0 -17 17 -28 15 -28 -7 0 -19 -14 -22 -37 -8 -18 11
-93 -43 -106 -75 -3 -10 -13 -18 -22 -18 -19 0 -19 -10 -1 -24 8 -6 23 -33 33
-61 15 -39 17 -61 11 -100 -12 -73 -13 -79 -21 -92 -8 -13 2 -45 13 -38 8 5
43 -31 59 -62 6 -13 18 -23 26 -23 7 0 26 -11 42 -24 22 -19 37 -23 69 -19 30
3 55 -3 93 -22 29 -15 59 -24 66 -21 8 3 21 -1 29 -9 18 -19 50 -20 40 -2 -5
7 0 6 11 -3 10 -8 16 -10 12 -3 -7 12 27 29 50 25 7 -2 40 -6 75 -11 35 -4 72
-12 82 -16 15 -7 17 -5 11 6 -7 11 -5 11 10 -1 10 -8 16 -10 12 -3 -10 17 13
21 57 10 28 -7 44 -7 58 2 11 7 27 9 37 6 11 -3 21 0 24 9 3 8 1 16 -6 19 -8
2 -8 5 1 11 7 4 12 2 12 -3 0 -14 27 -14 35 -1 3 6 -5 14 -19 19 -26 11 -30
47 -4 45 24 -2 26 60 4 85 -9 10 -16 22 -16 27 0 27 -83 86 -177 127 -56 25
-105 42 -108 39 -3 -3 -5 0 -5 6 0 7 4 12 9 12 5 0 11 8 14 19 6 23 57 38 68
20 6 -10 13 -10 34 -1 37 17 50 15 34 -4 -11 -14 -8 -15 32 -8 24 5 63 8 86 9
32 0 39 3 31 12 -8 10 -6 13 5 13 8 0 17 -6 20 -12 2 -7 8 -9 13 -4 9 8 -92
106 -110 106 -8 0 -44 28 -139 106 -10 8 -15 19 -12 24 3 6 1 10 -5 10 -6 0
-18 6 -26 14 -11 11 -11 16 -1 19 9 4 9 6 0 6 -6 1 -15 -4 -18 -9z m-35 -300
c0 -5 -9 -14 -20 -20 -16 -8 -20 -8 -18 2 5 23 38 39 38 18z m68 -188 c2 -8
-10 -12 -37 -12 -38 0 -40 2 -29 19 8 14 18 17 36 12 14 -4 27 -12 30 -19z
m117 -76 c28 -20 4 -46 -44 -46 -27 0 -32 -3 -21 -10 17 -11 -101 -7 -119 4
-6 4 -11 2 -11 -4 0 -6 -4 -8 -10 -5 -14 9 -12 25 3 25 6 0 23 9 36 19 14 10
30 17 37 14 7 -3 21 0 31 6 26 15 76 13 98 -3z"/>
<path d="M4345 7578 c-17 -4 -36 -6 -43 -3 -7 3 -23 -1 -35 -8 -12 -6 -39 -16
-60 -22 -21 -5 -39 -14 -39 -20 -1 -5 -7 -15 -15 -20 -12 -9 -11 -14 7 -30 17
-15 23 -16 29 -6 7 11 10 11 17 0 25 -39 11 -53 -91 -94 -109 -45 -163 -77
-195 -118 l-21 -27 23 -10 c16 -8 45 -8 98 0 93 13 130 12 198 -3 56 -13 70
-32 24 -32 -20 0 -26 -5 -24 -17 1 -9 -2 -19 -7 -23 -6 -3 -8 -12 -5 -19 3 -8
-4 -16 -15 -19 -30 -8 -26 -23 10 -38 54 -22 203 -17 289 9 128 39 180 70 206
122 50 104 64 136 64 152 0 9 4 19 9 22 14 9 8 71 -8 90 -7 9 -22 16 -31 16
-10 0 -27 11 -38 25 -11 14 -25 25 -32 25 -6 0 -23 9 -37 20 -14 11 -29 18
-33 15 -5 -3 -41 2 -81 10 -75 16 -115 17 -164 3z"/>
<path d="M3329 7108 c-18 -29 -20 -44 -16 -137 5 -94 7 -106 30 -129 39 -39
54 -25 62 60 11 109 18 122 60 114 35 -7 36 -6 29 21 -9 39 -51 81 -93 93 -50
14 -49 14 -72 -22z"/>
<path d="M3502 6903 c-25 -68 -23 -145 3 -123 9 8 12 24 8 47 -5 31 -4 35 10
30 11 -4 17 -1 17 9 0 8 -6 17 -14 20 -8 3 -12 13 -9 25 8 29 -3 23 -15 -8z"/>
<path d="M5228 6724 c9 -108 -17 -136 -100 -108 -64 21 -129 14 -197 -22 -67
-34 -114 -30 -212 21 -62 32 -79 37 -121 33 -27 -3 -56 -12 -65 -20 -13 -14
-12 -18 7 -36 18 -16 21 -27 15 -54 -10 -43 -16 -53 -25 -38 -10 16 -30 4 -30
-19 0 -10 -11 -23 -25 -29 -21 -10 -27 -9 -32 3 -4 13 -11 9 -31 -15 -33 -39
-57 -41 -39 -3 9 21 9 27 -1 31 -6 2 -12 13 -12 23 0 11 4 18 8 15 10 -6 28
26 36 66 4 15 17 38 29 50 20 19 23 31 19 71 -5 54 -25 71 -47 41 -26 -37
-105 -114 -132 -128 -16 -8 -48 -42 -73 -76 -25 -34 -57 -76 -73 -93 -25 -28
-45 -73 -36 -81 2 -2 28 -6 57 -10 49 -6 53 -5 64 19 6 14 15 25 20 25 11 0
10 -28 -2 -35 -6 -4 -8 -11 -4 -16 3 -6 -1 -18 -10 -28 -18 -20 -35 -124 -28
-172 2 -17 11 -33 18 -36 8 -3 14 -11 14 -19 0 -21 8 -17 42 16 32 32 58 39
58 15 0 -22 19 -18 40 7 14 17 30 23 63 24 67 2 102 13 88 27 -14 14 -14 54 0
62 18 12 49 -25 43 -51 -5 -18 -2 -24 11 -24 13 0 16 6 12 21 -8 30 9 69 31
69 9 0 28 -7 41 -16 21 -15 23 -15 38 6 14 19 21 21 67 15 28 -4 56 -13 62
-21 10 -12 13 -12 24 1 20 24 115 20 141 -6 15 -15 24 -18 32 -10 19 19 75 13
87 -9 23 -43 -65 -83 -92 -41 -11 18 -12 18 -28 -1 -20 -25 -112 -37 -134 -19
-10 9 -20 9 -34 2 -10 -5 -30 -7 -43 -4 -16 4 -21 2 -14 -4 6 -6 44 -15 85
-22 41 -7 97 -16 123 -21 27 -6 62 -10 78 -10 43 0 36 -13 -21 -40 -27 -13
-59 -33 -70 -45 -20 -21 -20 -23 -3 -29 21 -8 148 12 183 30 14 6 39 13 56 15
32 4 68 -16 58 -32 -3 -5 3 -22 13 -39 14 -24 24 -30 53 -30 26 0 31 3 20 10
-12 8 -11 10 6 10 11 0 25 -5 32 -12 9 -9 12 -9 12 0 0 7 8 12 19 12 14 0 17
-6 14 -24 -3 -13 1 -27 8 -31 6 -5 10 -4 7 1 -3 5 0 15 8 22 8 7 14 8 14 2 0
-5 14 -10 31 -10 16 0 28 4 24 9 -3 5 -1 13 5 16 6 4 8 16 5 27 -5 14 -1 21
13 25 14 3 18 11 15 24 -3 11 2 28 12 39 9 10 14 23 11 28 -3 5 6 9 21 8 14 0
28 5 31 13 3 10 -1 12 -18 8 -36 -9 -50 11 -32 48 27 54 29 59 30 103 1 30 -2
42 -12 42 -8 0 -17 -6 -19 -12 -3 -7 -6 -3 -6 9 -1 12 4 25 10 29 8 5 8 8 0
13 -6 4 -12 19 -13 34 -1 15 -5 27 -9 27 -4 0 -14 17 -23 38 -20 45 -33 65
-68 106 -16 17 -28 34 -28 38 0 4 -19 26 -42 50 -24 24 -64 66 -90 94 -66 73
-75 74 -70 8z m-887 -307 c-13 -12 -20 -15 -16 -7 14 26 28 41 33 35 3 -3 -5
-16 -17 -28z m99 -12 c0 -2 -9 -9 -20 -15 -12 -6 -20 -7 -20 -1 0 5 8 12 18
14 9 3 18 5 20 6 1 0 2 -1 2 -4z m-125 -35 c-3 -5 -12 -10 -18 -10 -7 0 -6 4
3 10 19 12 23 12 15 0z m1252 -132 c-3 -8 -6 -5 -6 6 -1 11 2 17 5 13 3 -3 4
-12 1 -19z m-392 -53 c0 -14 -8 -21 -27 -23 -22 -3 -28 1 -28 16 0 25 10 33
35 30 12 -2 20 -10 20 -23z"/>
<path d="M3502 6725 c10 -22 13 -23 20 -10 11 18 2 35 -17 35 -12 0 -12 -5 -3
-25z"/>
<path d="M3555 6315 c-5 -43 -3 -66 8 -89 9 -17 25 -65 37 -106 12 -41 27 -79
32 -85 7 -7 9 -2 4 15 -3 14 -9 43 -12 65 -4 22 -11 46 -16 52 -6 7 -7 24 -4
38 4 14 2 25 -3 25 -6 0 -9 18 -8 40 2 28 -1 40 -11 40 -8 0 -11 7 -8 18 3 9
2 23 -3 31 -6 8 -11 -7 -16 -44z"/>
<path d="M5650 6297 c0 -10 8 -17 18 -17 9 0 13 4 7 8 -5 4 -13 11 -17 16 -5
5 -8 2 -8 -7z"/>
<path d="M5632 6234 c-15 -17 -7 -54 13 -54 15 0 26 35 18 56 -7 18 -14 17
-31 -2z"/>
<path d="M4657 6173 c-12 -11 -8 -23 8 -23 8 0 15 7 15 15 0 16 -12 20 -23 8z"/>
<path d="M5651 6134 c0 -11 3 -14 6 -6 3 7 2 16 -1 19 -3 4 -6 -2 -5 -13z"/>
<path d="M5740 6114 c0 -8 5 -12 10 -9 6 3 10 10 10 16 0 5 -4 9 -10 9 -5 0
-10 -7 -10 -16z"/>
<path d="M5740 6077 c-1 -1 -3 -31 -6 -66 l-4 -63 41 33 c36 28 39 34 25 44
-8 7 -12 16 -8 20 4 5 -1 5 -10 2 -10 -4 -18 -2 -18 3 0 6 5 10 10 10 19 0 10
16 -10 17 -11 1 -20 1 -20 0z"/>
<path d="M5820 6059 c0 -11 4 -18 10 -14 5 3 7 12 3 20 -7 21 -13 19 -13 -6z"/>
<path d="M6002 6034 c-7 -8 -8 -14 -3 -14 10 0 25 19 20 25 -2 1 -10 -3 -17
-11z"/>
<path d="M3650 5986 c0 -8 5 -18 10 -21 6 -3 10 3 10 14 0 12 -4 21 -10 21 -5
0 -10 -6 -10 -14z"/>
<path d="M4647 5939 c-23 -13 -48 -64 -41 -82 3 -9 13 -13 26 -9 16 4 20 2 15
-10 -6 -18 27 -58 48 -58 8 0 36 -12 62 -27 26 -14 61 -27 78 -29 16 -1 44 -6
60 -10 17 -4 62 -8 100 -8 52 -1 72 -5 77 -16 4 -8 7 5 7 30 0 44 0 44 -16 23
-16 -24 -33 -30 -33 -12 0 23 32 78 43 73 8 -3 12 9 12 33 -1 40 14 75 27 67
4 -3 8 2 8 10 0 12 -10 16 -39 16 -22 0 -42 4 -45 8 -3 5 -27 8 -53 7 -57 -3
-182 -5 -203 -4 -8 1 -23 -2 -32 -6 -11 -4 -18 -3 -18 4 0 15 -43 14 -59 -1
-11 -10 -13 -10 -7 0 9 14 6 15 -17 1z"/>
<path d="M5673 5933 c-7 -3 -13 -12 -13 -21 0 -15 2 -15 17 1 18 18 16 27 -4
20z"/>
<path d="M5705 5890 c-3 -5 -1 -10 4 -10 6 0 11 5 11 10 0 6 -2 10 -4 10 -3 0
-8 -4 -11 -10z"/>
<path d="M5096 5772 c-3 -5 1 -9 9 -9 8 0 12 4 9 9 -3 4 -7 8 -9 8 -2 0 -6 -4
-9 -8z"/>
<path d="M5450 5750 c0 -5 5 -10 11 -10 5 0 7 5 4 10 -3 6 -8 10 -11 10 -2 0
-4 -4 -4 -10z"/>
<path d="M5745 5750 c-3 -5 -1 -10 4 -10 6 0 11 5 11 10 0 6 -2 10 -4 10 -3 0
-8 -4 -11 -10z"/>
<path d="M5070 5605 c0 -9 5 -15 11 -13 6 2 11 8 11 13 0 5 -5 11 -11 13 -6 2
-11 -4 -11 -13z"/>
<path d="M4991 5574 c0 -11 3 -14 6 -6 3 7 2 16 -1 19 -3 4 -6 -2 -5 -13z"/>
<path d="M5230 5540 c0 -5 7 -10 16 -10 8 0 12 5 9 10 -3 6 -10 10 -16 10 -5
0 -9 -4 -9 -10z"/>
<path d="M6056 5248 c7 -29 19 -98 25 -154 15 -131 2 -231 -86 -654 -13 -63
-36 -194 -50 -290 -32 -207 -54 -304 -95 -422 -33 -98 -37 -121 -15 -92 14 17
14 15 9 -26 -4 -25 -17 -106 -31 -180 -16 -88 -20 -136 -13 -138 5 -2 10 -8
10 -13 0 -6 -5 -7 -10 -4 -13 8 -16 0 -41 -115 -11 -52 -27 -126 -36 -165 -9
-38 -17 -84 -17 -101 -1 -17 -7 -38 -14 -47 -8 -9 -11 -20 -8 -26 3 -5 3 -11
-2 -13 -12 -5 -84 -276 -77 -288 3 -5 2 -10 -3 -10 -5 0 -21 -44 -35 -98 -15
-53 -47 -160 -71 -238 -24 -77 -63 -214 -86 -305 -22 -90 -45 -173 -50 -184
-4 -11 -41 -121 -80 -245 -122 -380 -139 -430 -200 -590 -32 -85 -67 -184 -79
-220 -26 -84 -71 -206 -111 -300 -17 -41 -44 -109 -60 -150 -15 -41 -37 -99
-49 -127 l-21 -53 2385 0 2384 0 0 48 c-1 137 -44 419 -88 570 -14 47 -21 110
-24 217 -3 83 -13 188 -22 235 -32 166 -85 369 -124 471 -37 100 -39 111 -44
259 -7 184 -34 309 -97 445 -5 11 -16 70 -25 130 -9 61 -28 148 -41 194 -16
52 -24 99 -21 120 8 59 -11 196 -39 279 -14 43 -31 131 -39 200 -8 68 -17 131
-19 140 -3 10 -15 76 -25 147 -31 202 -79 317 -140 331 -14 4 -42 22 -61 40
-45 43 -251 133 -505 223 -66 23 -142 51 -170 61 -27 11 -95 35 -150 53 -131
45 -277 105 -510 212 -300 137 -556 251 -600 266 -73 24 -259 155 -438 308
-67 58 -104 100 -153 174 -65 97 -129 177 -144 177 -5 0 -2 -24 6 -52z"/>
<path d="M3851 5229 c-2 -127 43 -308 117 -469 16 -36 74 -141 127 -235 54
-93 119 -208 144 -255 60 -110 81 -141 91 -135 9 5 5 43 -5 53 -2 3 0 11 6 18
7 9 5 23 -9 51 -11 21 -21 43 -22 48 -7 34 -65 143 -117 220 -33 50 -63 100
-67 112 -4 12 -23 46 -43 74 -53 78 -181 345 -192 403 -6 28 -14 80 -19 116
l-9 65 -2 -66z"/>
<path d="M3708 5226 c-49 -76 -96 -175 -103 -216 -4 -22 -13 -47 -22 -55 -8
-8 -12 -15 -9 -15 4 0 -3 -18 -14 -40 -11 -21 -20 -46 -20 -55 0 -8 -6 -15
-14 -15 -12 0 -24 -16 -31 -42 -2 -5 -3 -9 -5 -10 -7 -10 -6 -38 1 -38 6 0 8
-4 4 -10 -8 -13 -36 0 -28 14 4 7 1 7 -7 -1 -11 -10 -10 -16 4 -32 15 -16 15
-22 4 -40 -7 -12 -19 -21 -26 -21 -7 0 -10 -5 -7 -10 4 -7 -3 -9 -18 -6 -30 5
-47 -5 -51 -30 -2 -10 -13 -24 -25 -30 -31 -16 -53 -38 -28 -29 10 4 17 2 17
-4 0 -6 -3 -11 -7 -12 -34 -3 -51 -11 -68 -33 -22 -28 -63 -34 -83 -14 -16 16
-28 2 -13 -16 7 -8 10 -20 6 -26 -3 -5 0 -13 9 -16 27 -10 26 -34 -2 -63 -32
-34 -89 -64 -102 -56 -6 4 -18 -8 -28 -25 -11 -20 -23 -29 -34 -26 -19 4 -53
-17 -53 -34 0 -6 -15 -20 -32 -31 -39 -25 -44 -9 -9 24 13 12 25 31 27 42 2
11 14 21 25 23 17 2 21 9 18 33 -2 17 1 29 8 29 6 0 9 3 5 6 -3 3 3 15 13 26
10 11 16 26 13 34 -3 8 -1 14 4 14 5 0 9 12 8 28 0 22 -5 27 -23 25 -37 -4
-21 34 17 42 33 6 51 24 51 51 0 21 3 23 26 14 18 -7 25 -7 22 1 -2 6 -7 10
-12 9 -13 -3 -25 21 -19 37 4 9 14 12 28 9 15 -4 28 1 40 14 11 12 14 20 7 21
-7 1 -17 2 -24 3 -12 1 -25 26 -13 26 3 0 17 -7 31 -16 33 -22 43 -10 13 17
-13 11 -18 18 -11 14 6 -3 12 -1 12 4 0 6 -5 11 -11 11 -5 0 -8 3 -6 8 7 10
-85 13 -98 3 -5 -5 -23 -11 -39 -15 -15 -4 -26 -9 -23 -13 8 -8 -22 -36 -68
-65 -22 -14 -58 -42 -79 -62 -22 -19 -41 -34 -43 -32 -8 8 10 33 37 51 37 25
46 45 20 45 -18 0 -24 -10 -22 -32 1 -3 -6 -9 -14 -12 -11 -4 -15 -2 -11 8 5
12 1 13 -26 4 -23 -9 -32 -8 -35 0 -6 19 -32 14 -34 -5 -2 -35 -3 -38 -11 -40
-20 -7 -28 -1 -22 17 4 12 -14 -1 -45 -32 -28 -29 -47 -54 -41 -56 7 -2 18 2
27 8 12 11 13 10 7 -6 -15 -40 -68 -59 -79 -29 -6 15 -35 20 -48 8 -10 -10
-79 -33 -85 -28 -2 3 2 11 8 19 8 10 9 16 1 21 -5 3 -10 3 -10 -2 0 -4 -14
-16 -30 -25 -28 -16 -42 -48 -20 -48 5 0 7 7 4 15 -5 11 -2 13 11 9 11 -5 13
-10 6 -17 -14 -14 -14 -30 -1 -22 6 3 10 1 10 -4 0 -14 -13 -14 -27 0 -9 9
-16 8 -27 -3 -8 -9 -25 -13 -39 -11 -17 3 -24 0 -24 -11 0 -9 7 -16 14 -16 8
0 11 -4 8 -10 -3 -5 -2 -10 4 -10 5 0 13 9 16 20 7 22 25 27 25 8 0 -25 -19
-42 -49 -44 -29 -2 -48 17 -35 37 8 14 -22 10 -35 -4 -13 -16 -5 -28 15 -20
17 6 19 -18 2 -35 -18 -18 -27 -15 -21 8 6 23 -15 28 -23 5 -4 -8 -10 -12 -15
-9 -5 3 -1 16 8 30 15 23 15 26 -3 40 -35 27 -54 35 -54 24 0 -6 -6 -10 -12
-8 -23 4 -69 -12 -63 -22 3 -6 -5 -15 -19 -22 -27 -12 -35 -28 -14 -28 8 0 6
-6 -4 -17 -15 -14 -19 -14 -33 -3 -16 13 -16 15 2 21 11 4 -1 7 -30 7 -26 0
-45 -3 -42 -6 2 -3 0 -11 -7 -19 -8 -11 -7 -12 6 -7 9 3 16 1 16 -5 0 -6 -4
-11 -10 -11 -5 0 -10 -6 -10 -13 0 -8 -7 -14 -14 -14 -8 0 -14 5 -13 11 3 14
-36 8 -45 -7 -4 -7 0 -13 10 -16 9 -2 23 -8 30 -14 11 -8 20 -3 42 21 15 18
34 32 41 32 9 -1 5 -8 -9 -20 -38 -31 -21 -44 20 -16 30 20 37 22 42 9 9 -21
-25 -62 -59 -71 -16 -5 -31 -5 -33 0 -6 15 -21 8 -27 -12 -4 -12 -1 -28 6 -36
9 -12 8 -18 -10 -33 -11 -10 -21 -27 -21 -38 0 -12 -6 -26 -14 -32 -11 -9 -15
-7 -19 8 -2 11 0 24 6 30 8 8 8 11 -1 11 -7 0 -12 -5 -12 -11 0 -5 -4 -8 -9
-5 -10 7 -37 -52 -27 -61 3 -3 6 -2 6 4 0 6 14 -2 31 -18 18 -16 29 -33 25
-37 -4 -4 -12 1 -17 10 -7 12 -19 16 -41 14 -28 -3 -53 -24 -42 -35 3 -3 9 1
14 8 7 12 10 12 22 0 13 -12 12 -17 -3 -33 -17 -17 -19 -17 -25 -2 -9 23 -31
20 -40 -6 -13 -40 -12 -44 10 -44 15 1 20 -4 18 -18 -2 -10 1 -16 5 -13 14 9
9 -61 -5 -75 -15 -15 -16 -40 0 -56 18 -18 1 -14 -22 5 -11 10 -20 24 -20 32
0 12 -2 13 -12 2 -10 -11 -10 -14 0 -18 6 -3 12 -12 11 -21 0 -11 -3 -12 -6
-5 -7 19 -37 -14 -38 -41 0 -31 -60 -36 -70 -6 -3 11 -10 18 -15 15 -5 -3 -7
-12 -3 -21 4 -12 -4 -14 -43 -13 -52 1 -79 -3 -90 -14 -11 -11 -13 -67 -2 -73
5 -3 4 -11 -3 -20 -8 -10 -16 -11 -29 -4 -10 6 -26 10 -36 10 -9 0 -23 8 -30
18 -13 16 -14 16 -8 0 5 -15 0 -18 -32 -18 -39 1 -80 21 -67 33 3 4 1 7 -5 7
-7 0 -12 -4 -12 -10 0 -16 -27 -11 -34 6 -3 8 0 22 8 29 12 12 16 12 26 0 15
-18 28 -19 43 -2 22 24 18 35 -12 31 -32 -5 -48 16 -31 44 9 16 9 16 10 0 0
-23 15 -31 37 -19 10 5 26 12 36 15 9 3 17 11 17 18 0 9 -3 8 -10 -2 -7 -11
-10 -11 -10 -2 0 7 -4 10 -10 7 -5 -3 -10 1 -10 10 0 15 -1 15 -16 1 -8 -9
-20 -14 -25 -10 -20 12 -48 -7 -46 -33 1 -18 -3 -26 -16 -28 -15 -3 -35 17
-35 38 -1 9 -20 102 -29 137 -3 14 -8 68 -10 120 -3 52 -9 99 -13 104 -5 5
-20 2 -35 -8 -21 -14 -26 -24 -22 -42 2 -14 -2 -31 -10 -40 -8 -8 -10 -14 -4
-14 14 0 14 -27 0 -32 -8 -3 -6 -16 5 -42 11 -26 14 -54 10 -85 -9 -78 -7
-130 4 -144 18 -21 13 -139 -6 -160 -14 -16 -16 -16 -34 0 -25 22 -47 9 -70
-40 -10 -19 -22 -38 -28 -42 -20 -12 -40 17 -41 59 -1 39 -2 39 -10 -14 -4
-30 -6 -63 -3 -72 3 -10 1 -18 -5 -18 -11 0 -31 -62 -31 -96 0 -18 5 -20 41
-17 26 2 38 -1 34 -7 -4 -6 -2 -17 5 -24 11 -15 8 -52 -8 -83 -12 -23 -5 -43
16 -43 14 -1 13 -3 -3 -12 -11 -6 -22 -14 -25 -17 -11 -14 -60 -41 -75 -41 -8
0 -15 6 -15 13 -1 22 -29 -37 -30 -62 0 -16 -4 -21 -14 -18 -23 9 -26 -18 -4
-32 21 -13 21 -47 1 -69 -7 -7 -10 -19 -7 -27 4 -9 -2 -18 -12 -22 -26 -11
-31 -37 -6 -31 11 3 25 2 32 -2 19 -12 2 -30 -27 -30 -19 0 -24 -4 -19 -16 3
-9 6 -18 6 -21 0 -3 7 0 15 7 12 10 17 7 26 -14 7 -14 16 -26 21 -26 5 0 7 4
4 9 -4 5 5 4 19 -2 13 -7 27 -18 30 -24 6 -18 -10 -16 -25 2 -17 21 -28 10
-22 -21 3 -19 1 -25 -7 -20 -6 4 -11 1 -11 -6 0 -8 -3 -9 -8 -3 -4 6 -19 12
-34 13 -21 1 -26 -2 -21 -14 3 -8 13 -14 22 -12 9 1 22 -1 29 -5 14 -10 17
-67 2 -67 -5 0 -7 -6 -4 -14 3 -8 0 -17 -7 -22 -8 -4 -10 -3 -5 4 4 7 2 12 -3
12 -14 0 -14 -16 1 -40 10 -16 10 -22 -1 -32 -11 -10 -14 -10 -18 0 -6 14 -23
16 -23 2 0 -5 9 -19 19 -29 17 -17 18 -21 4 -40 -8 -12 -19 -19 -24 -16 -5 4
-9 -2 -9 -13 0 -10 -3 -21 -6 -25 -8 -7 -74 28 -86 45 -5 9 -8 6 -8 -9 0 -16
13 -29 50 -49 45 -24 48 -28 32 -40 -23 -18 -32 -17 -32 2 0 21 -23 13 -26 -9
-1 -9 1 -15 5 -12 5 2 8 -8 9 -24 1 -29 -21 -38 -45 -18 -14 10 -17 0 -13 -37
1 -10 -3 -15 -8 -12 -5 3 -13 -5 -16 -19 -4 -14 -14 -25 -22 -25 -11 0 -15 -6
-11 -17 12 -43 11 -48 -3 -48 -10 0 -25 -31 -47 -95 -30 -89 -50 -200 -72
-385 -11 -96 -55 -249 -105 -363 -20 -46 -47 -123 -61 -170 -33 -113 -68 -299
-59 -314 4 -6 3 -8 -3 -5 -6 4 -13 -6 -15 -23 -3 -17 0 -30 6 -30 7 0 7 -3 -1
-8 -6 -4 -17 -20 -22 -36 -16 -41 -77 -290 -91 -371 -7 -38 -19 -95 -26 -125
-8 -30 -14 -60 -14 -67 0 -11 373 -13 1996 -13 1896 0 1995 1 1990 18 -22 67
-82 291 -111 412 -89 365 -116 482 -134 570 -47 228 -108 708 -116 910 -3 74
-12 194 -20 265 -8 72 -19 225 -25 340 -6 116 -15 285 -21 377 -10 185 -12
727 -3 752 3 9 10 14 14 11 18 -11 22 21 19 168 -4 222 0 308 17 384 10 44 19
161 24 333 12 363 21 426 92 647 25 79 20 92 -14 39z m-245 -619 c3 -8 -1 -14
-9 -14 -8 0 -14 6 -14 14 0 7 4 13 9 13 5 0 11 -6 14 -13z m-682 -30 c-1 -12
-15 -9 -19 4 -3 6 1 10 8 8 6 -3 11 -8 11 -12z m279 -22 c-7 -9 -15 -13 -19
-10 -3 3 1 10 9 15 21 14 24 12 10 -5z m247 -70 c0 -8 -6 -15 -13 -15 -8 0
-11 6 -8 15 4 8 9 15 13 15 4 0 8 -7 8 -15z m168 -43 c-8 -9 -25 20 -18 31 3
5 10 2 15 -7 6 -10 7 -20 3 -24z m-757 -1 c-7 -12 -16 -21 -20 -21 -10 0 3 33
16 42 17 11 18 2 4 -21z m482 -1 c0 -5 -4 -10 -10 -10 -5 0 -10 5 -10 10 0 6
5 10 10 10 6 0 10 -4 10 -10z m177 -17 c-16 -16 -17 -16 -17 0 0 10 5 15 10
12 6 -3 10 -1 10 6 0 7 3 9 7 5 4 -3 -1 -14 -10 -23z m-841 10 c-3 -4 -17 -8
-29 -10 -17 -2 -19 -1 -7 7 17 11 47 14 36 3z m896 -55 c-6 -6 -8 -1 -7 14 3
32 7 36 12 14 3 -10 1 -22 -5 -28z m61 27 c-3 -9 -8 -14 -10 -11 -3 3 -2 9 2
15 9 16 15 13 8 -4z m-198 -34 c-5 -13 -4 -14 6 -3 16 15 33 16 23 0 -4 -7 -3
-8 4 -4 6 4 9 13 5 21 -3 8 -1 15 5 15 17 0 20 -24 5 -38 -11 -11 -10 -16 2
-29 8 -8 13 -18 11 -22 -3 -4 2 -8 10 -8 13 0 15 8 11 33 -3 19 -1 36 4 39 5
4 9 -1 9 -10 0 -9 9 -19 20 -22 11 -3 20 -9 20 -13 0 -14 -28 -19 -34 -7 -3 9
-5 9 -5 0 -1 -7 7 -21 17 -31 10 -10 18 -29 17 -41 -1 -12 2 -24 7 -27 5 -3 6
-14 3 -24 -3 -10 1 -24 9 -32 9 -9 11 -20 6 -28 -5 -8 -4 -22 1 -31 14 -27 11
-32 -26 -57 -19 -12 -35 -29 -35 -37 0 -22 15 -18 34 8 9 12 14 16 11 9 -4 -6
1 -19 10 -28 17 -18 16 -35 -3 -42 -7 -2 -16 7 -21 19 -8 23 -8 23 -19 3 -19
-35 -25 -93 -12 -109 12 -15 11 -16 -10 -19 -5 0 -11 -5 -12 -11 -2 -5 -15
-21 -29 -34 -23 -21 -25 -28 -16 -49 9 -18 8 -25 -4 -33 -11 -7 -10 -9 5 -9
11 0 27 7 37 16 12 11 23 13 34 7 15 -9 15 -11 1 -22 -12 -10 -13 -18 -5 -32
10 -20 -4 -28 -16 -9 -14 22 -23 8 -22 -32 1 -24 8 -48 16 -54 17 -13 6 -35
-13 -28 -8 3 -13 20 -12 45 1 21 -1 44 -5 50 -8 14 -29 3 -29 -14 0 -7 4 -6
11 3 7 11 9 8 6 -16 -3 -17 1 -47 8 -67 11 -33 11 -37 -6 -42 -20 -7 -24 -17
-12 -28 3 -4 12 -2 19 4 13 11 27 -3 31 -31 1 -11 -2 -10 -12 4 -13 17 -15 17
-40 -8 -23 -23 -21 -30 5 -28 3 0 7 -11 8 -26 1 -15 7 -28 12 -30 6 -2 6 -10
0 -22 -7 -14 -6 -20 7 -24 14 -6 14 -8 -1 -24 -17 -20 -22 -47 -6 -37 25 15 7
-25 -22 -50 -29 -24 -30 -27 -10 -22 15 4 29 -1 42 -16 20 -21 27 -43 11 -32
-14 8 -40 -22 -37 -42 2 -10 -2 -21 -8 -25 -8 -5 -7 -8 2 -8 6 0 12 -8 12 -18
0 -10 5 -23 10 -30 6 -6 7 -10 4 -7 -4 2 -13 -3 -21 -11 -8 -8 -20 -11 -26 -7
-8 5 -6 9 6 11 9 2 17 8 17 13 0 12 -6 11 -29 -3 -18 -11 -18 -13 -3 -25 9 -7
12 -13 6 -13 -15 0 -5 -50 14 -69 13 -13 12 -16 -4 -22 -15 -5 -20 -1 -22 16
-2 16 -12 24 -31 28 -15 3 -35 17 -45 31 -16 25 -16 26 21 49 21 13 50 27 65
30 26 7 26 8 12 37 -17 33 -20 35 -30 18 -4 -6 -3 -8 4 -4 6 4 10 -1 9 -13 0
-11 -4 -18 -8 -15 -4 2 -10 -2 -12 -8 -3 -8 -6 -6 -6 5 -1 9 -6 17 -12 17 -5
0 -7 5 -4 10 11 19 -6 10 -31 -15 -24 -24 -24 -25 -4 -25 12 0 18 5 15 10 -3
6 -2 10 3 10 6 0 12 -7 16 -15 3 -8 1 -15 -4 -15 -5 0 -16 -7 -25 -16 -20 -21
-37 -7 -40 33 -2 15 -6 37 -10 48 -5 11 -5 17 0 13 9 -8 35 9 35 22 0 12 -25
6 -43 -8 -15 -13 -15 -21 -1 -94 4 -26 3 -38 -5 -38 -6 0 -11 7 -11 16 0 8 -3
13 -7 11 -5 -3 -14 1 -20 9 -8 8 -9 15 -3 19 12 7 13 65 2 65 -5 0 -7 -12 -5
-27 4 -23 -1 -30 -27 -42 -17 -7 -34 -10 -37 -7 -4 3 1 6 11 6 10 0 14 5 10
12 -4 7 -3 8 4 4 7 -4 12 -4 12 1 0 13 -14 28 -27 29 -29 2 -33 5 -33 19 0 10
10 15 30 15 21 0 28 4 24 14 -3 8 -15 17 -27 19 -13 3 -11 4 6 2 17 -1 27 3
27 12 0 8 -4 11 -10 8 -19 -12 -10 42 11 69 19 24 19 27 4 24 -13 -2 -18 5
-21 27 -2 16 0 25 4 19 4 -6 15 -10 25 -8 9 1 14 -2 11 -7 -3 -6 0 -16 6 -24
6 -8 9 -23 5 -35 -4 -13 -2 -20 7 -20 10 0 9 -3 -2 -10 -8 -5 -10 -10 -4 -10
21 0 26 -34 8 -47 -14 -10 -14 -13 -3 -13 30 0 42 18 41 62 -1 37 1 40 10 21
10 -21 48 -29 45 -8 -1 5 3 9 10 8 7 -2 10 4 6 13 -3 8 -12 13 -19 10 -18 -7
-18 3 0 23 21 23 5 48 -20 31 -16 -10 -16 -11 -1 -6 28 9 20 -23 -9 -34 -28
-11 -68 3 -61 23 4 13 28 23 26 10 -3 -18 2 -33 11 -33 15 0 12 26 -4 40 -8 6
-16 25 -18 42 -4 39 -18 44 -47 18 -13 -11 -27 -17 -31 -15 -5 3 -11 -1 -14
-7 -6 -12 -3 8 5 42 3 12 -4 14 -33 12 -29 -3 -38 0 -38 12 0 17 20 18 32 1 5
-6 8 -4 8 4 0 8 -7 19 -15 25 -14 10 -13 13 5 28 19 17 20 17 21 -5 1 -12 1
-25 0 -29 0 -5 2 -7 7 -7 20 3 32 -2 32 -15 0 -22 14 -27 44 -13 28 13 32 22
16 32 -5 3 -10 23 -10 43 0 33 1 34 14 16 9 -11 11 -23 5 -30 -5 -7 -4 -11 6
-11 8 0 12 4 9 9 -3 4 -1 8 5 8 18 0 5 35 -17 45 -12 5 -22 13 -22 17 0 5 -7
8 -16 8 -24 0 -12 35 14 38 12 2 22 8 22 13 0 7 -12 8 -30 4 -34 -7 -42 13
-15 35 20 17 19 27 -4 33 -20 5 -49 47 -32 47 5 0 7 10 4 23 l-5 22 21 -24
c19 -21 21 -21 21 -5 -1 24 -22 52 -36 47 -6 -2 -14 6 -17 17 -4 17 -2 20 15
14 18 -5 20 -3 13 12 -4 11 -9 27 -12 36 -3 9 -11 14 -19 11 -18 -7 -18 7 2
35 15 21 10 28 -19 23 -4 0 -6 2 -5 6 1 5 -1 18 -6 31 -15 43 -22 21 -15 -45
4 -38 6 -68 6 -68 -1 0 -16 -10 -34 -22 -21 -15 -33 -19 -35 -11 -3 8 -14 5
-34 -9 -16 -11 -36 -20 -44 -21 -19 -1 -49 -8 -74 -18 -14 -5 -17 -3 -14 12 2
12 11 18 23 17 11 -1 23 3 26 9 9 15 0 39 -15 37 -44 -5 -64 14 -26 26 27 9
46 43 31 58 -15 15 -14 27 4 27 8 0 12 -6 9 -13 -3 -8 2 -20 10 -27 10 -7 14
-21 10 -34 -6 -27 19 -65 31 -46 5 8 4 11 -2 7 -14 -9 -23 27 -12 44 7 11 9
11 9 1 0 -17 42 -12 48 6 3 11 0 12 -15 3 -16 -8 -24 -6 -42 14 -11 14 -21 30
-21 35 0 13 17 13 25 0 9 -15 31 10 33 39 1 20 0 23 -8 11 -8 -12 -10 -10 -11
10 -1 23 -2 23 -8 -4 -9 -44 -31 -45 -31 -2 0 35 5 40 42 37 38 -4 78 65 48
84 -17 10 -11 23 21 45 34 25 46 21 29 -9 -9 -17 -8 -21 5 -21 14 0 19 13 18
50 -1 8 44 44 99 80 56 36 119 79 141 97 42 32 63 34 52 4z m-1121 -17 c12
-11 13 -20 6 -34 -10 -19 -40 -17 -40 2 0 6 7 8 14 5 10 -4 13 -1 9 8 -4 12
-10 11 -33 -5 -24 -17 -29 -18 -34 -5 -3 8 -1 15 4 15 5 0 12 11 16 25 5 20 9
23 24 15 10 -5 26 -17 34 -26z m478 -5 c-3 -20 -1 -30 6 -26 14 10 38 -21 25
-34 -12 -12 -83 16 -83 33 0 13 39 58 50 58 4 0 4 -14 2 -31z m-545 -55 c18
-18 22 -29 15 -36 -13 -13 -68 35 -58 51 10 16 14 14 43 -15z m198 -4 c3 -5
-1 -10 -9 -10 -9 0 -16 5 -16 10 0 6 4 10 9 10 6 0 13 -4 16 -10z m-70 -19 c3
-5 2 -12 -3 -15 -5 -3 -9 1 -9 9 0 17 3 19 12 6z m-65 -11 c0 -5 -7 -10 -16
-10 -8 0 -12 5 -9 10 3 6 10 10 16 10 5 0 9 -4 9 -10z m38 -22 c8 -8 15 -9 23
-1 5 5 21 8 34 5 40 -7 7 -28 -48 -30 -50 -2 -50 -2 -41 22 7 19 16 20 32 4z
m-77 -8 c15 8 19 7 19 -3 0 -23 -26 -38 -54 -33 -23 4 -26 1 -26 -25 0 -16 4
-29 10 -29 6 0 5 -10 -2 -25 -14 -31 -28 -33 -20 -3 3 14 2 19 -6 14 -7 -4
-17 -4 -23 0 -8 4 -4 11 11 19 l23 12 -23 23 c-18 18 -20 24 -9 31 8 5 15 4
17 -1 2 -6 10 -3 19 5 8 8 19 13 24 10 5 -4 9 0 10 7 0 10 2 10 6 1 3 -9 10
-10 24 -3z m339 -9 c0 -5 -7 -14 -15 -21 -12 -10 -15 -10 -15 2 0 8 3 18 7 21
9 10 23 9 23 -2z m-496 -97 c3 -8 2 -14 -2 -14 -10 0 -32 22 -32 32 0 12 28
-2 34 -18z m206 -9 c-7 -9 -15 -13 -18 -10 -3 2 1 11 8 20 7 9 15 13 18 10 3
-2 -1 -11 -8 -20z m729 -11 c-13 -16 -39 -19 -39 -4 0 12 32 30 43 23 4 -3 3
-11 -4 -19z m-239 7 c0 -13 -25 -20 -40 -11 -10 6 -8 9 6 13 31 8 34 7 34 -2z
m-734 -31 c0 -12 -4 -16 -9 -11 -5 5 -6 14 -3 20 10 15 12 14 12 -9z m854 -15
c0 -8 -2 -15 -4 -15 -2 0 -6 7 -10 15 -3 8 -1 15 4 15 6 0 10 -7 10 -15z
m-600 -5 c0 -5 -4 -10 -10 -10 -5 0 -10 5 -10 10 0 6 5 10 10 10 6 0 10 -4 10
-10z m-200 -41 c0 -14 -17 -10 -23 5 -4 10 -1 13 9 9 7 -3 14 -9 14 -14z m363
-7 c-3 -12 -9 -22 -14 -22 -5 0 -3 11 3 25 13 30 20 28 11 -3z m357 5 c0 -8
-6 -14 -12 -14 -7 0 -17 -2 -23 -4 -5 -2 -11 1 -13 6 -2 6 7 13 20 17 13 3 24
6 26 7 1 1 2 -5 2 -12z m-622 -62 c10 -5 26 -10 37 -10 12 0 21 -8 23 -20 2
-11 1 -17 -3 -13 -3 3 -20 2 -37 -3 -28 -8 -30 -7 -25 17 2 15 0 23 -6 21 -6
-2 -18 4 -27 12 -15 15 -16 18 -1 35 15 18 16 18 19 -5 2 -13 11 -28 20 -34z
m536 18 c-4 -55 -6 -58 -14 -23 -8 35 -6 50 9 50 4 0 7 -12 5 -27z m-624 -13
c-6 -11 -13 -20 -16 -20 -2 0 0 9 6 20 6 11 13 20 16 20 2 0 0 -9 -6 -20z
m-50 -16 c0 -18 -26 -18 -33 0 -3 8 -3 16 0 19 9 10 33 -5 33 -19z m92 9 c-6
-2 -9 -9 -6 -14 6 -11 -13 -39 -27 -39 -5 0 -3 14 6 30 9 17 21 30 28 29 9 0
9 -2 -1 -6z m1371 -48 c-3 -9 -8 -14 -10 -11 -3 3 -2 9 2 15 9 16 15 13 8 -4z
m-1483 -20 c0 -8 -4 -15 -10 -15 -5 0 -7 7 -4 15 4 8 8 15 10 15 2 0 4 -7 4
-15z m368 1 c-7 -8 -15 -12 -17 -11 -5 6 10 25 20 25 5 0 4 -6 -3 -14z m144
-3 c-5 -10 -12 -37 -16 -60 -5 -35 -3 -43 9 -43 19 0 19 -10 0 -46 -14 -27
-14 -29 7 -34 31 -8 32 -25 3 -38 -35 -16 -38 -15 -32 10 4 12 1 29 -6 37 -9
12 -9 13 1 7 15 -9 16 -11 -8 52 -25 66 -25 87 0 112 26 26 55 27 42 3z m-372
-16 c0 -7 -11 -13 -25 -13 -19 0 -22 3 -13 13 6 7 17 13 24 13 8 0 14 -6 14
-13z m-118 -19 c-7 -7 -12 -8 -12 -2 0 14 12 26 19 19 2 -3 -1 -11 -7 -17z
m164 9 c4 -4 0 -7 -9 -7 -9 0 -18 4 -21 9 -7 10 20 9 30 -2z m-250 -33 c2 -12
0 -14 -9 -5 -6 6 -12 18 -13 27 -2 12 0 14 9 5 6 -6 12 -18 13 -27z m47 11
c-6 -17 -23 -20 -23 -5 0 6 5 10 11 10 5 0 7 5 3 12 -4 7 -3 8 4 4 6 -4 9 -13
5 -21z m86 -4 c-15 -5 -22 6 -14 19 6 9 10 9 16 -1 5 -8 4 -15 -2 -18z m44 2
c-7 -2 -13 -11 -13 -19 0 -9 -5 -12 -10 -9 -13 8 6 35 24 34 7 0 6 -2 -1 -6z
m640 -6 c3 -8 -1 -14 -9 -14 -15 0 -18 9 -7 20 9 9 10 9 16 -6z m332 -38 c-4
-17 -2 -29 3 -29 6 0 10 -16 10 -35 0 -32 -4 -37 -24 -34 -4 0 -11 -5 -15 -13
-7 -10 -9 -10 -9 0 0 6 -9 12 -20 12 -13 0 -20 7 -20 20 0 13 5 18 15 14 8 -4
15 -10 15 -15 0 -5 5 -9 10 -9 15 0 12 26 -5 40 -8 7 -15 27 -15 46 0 26 4 33
23 36 33 6 39 -1 32 -33z m395 22 c0 -5 -7 -11 -15 -15 -9 -3 -15 0 -15 9 0 8
7 15 15 15 8 0 15 -4 15 -9z m-471 -45 c-13 -14 -33 9 -25 30 6 16 8 16 21 -2
8 -12 10 -23 4 -28z m-204 4 c3 -6 -1 -13 -10 -16 -19 -8 -30 0 -20 15 8 14
22 14 30 1z m-50 -21 c-10 -15 -55 -30 -67 -23 -6 4 2 13 18 20 36 16 57 17
49 3z m196 -16 c6 -6 8 -16 4 -23 -5 -8 -13 -5 -26 9 -10 11 -19 22 -19 25 0
8 30 0 41 -11z m-994 -8 c0 -8 -6 -15 -13 -15 -8 0 -11 6 -8 15 4 8 9 15 13
15 4 0 8 -7 8 -15z m83 -1 c0 -3 -7 -12 -15 -20 -12 -13 -15 -13 -15 -1 0 7 3
17 7 20 8 8 23 9 23 1z m769 -41 c1 -22 -16 -14 -22 9 -8 28 4 47 14 22 4 -10
8 -25 8 -31z m-502 20 c-9 -9 -19 -14 -23 -11 -10 10 6 28 24 28 15 0 15 -1
-1 -17z m451 -17 c3 -42 -19 -67 -50 -58 l-23 7 23 3 c12 2 22 8 22 13 0 6 5
7 10 4 16 -10 11 11 -6 26 -14 12 -14 14 2 26 10 7 18 13 19 13 0 0 2 -15 3
-34z m159 7 c0 -12 -9 -18 -24 -18 -38 0 -26 18 24 34 1 1 1 -7 0 -16z m-1112
-52 c-9 -16 -25 -3 -18 15 4 10 9 12 15 6 6 -6 7 -15 3 -21z m1305 15 c0 -8
-4 -18 -10 -21 -5 -3 -10 3 -10 14 0 12 5 21 10 21 6 0 10 -6 10 -14z m-570
-33 c0 -7 -5 -13 -11 -13 -5 0 -8 -4 -5 -9 4 -5 0 -12 -6 -14 -8 -3 -6 -6 5
-6 9 -1 17 -6 17 -12 0 -5 -4 -7 -10 -4 -5 3 -10 1 -10 -6 0 -9 -3 -9 -14 0
-20 17 -26 49 -11 65 17 17 45 16 45 -1z m-937 -23 c39 8 53 0 43 -25 -3 -9
-12 -12 -22 -8 -12 4 -15 3 -10 -5 5 -8 1 -10 -11 -5 -34 13 -63 35 -57 45 4
7 9 6 13 0 4 -7 20 -8 44 -2z m1429 -12 c-7 -7 -12 -8 -12 -2 0 6 3 14 7 17 3
4 9 5 12 2 2 -3 -1 -11 -7 -17z m53 3 c3 -5 0 -13 -6 -17 -7 -4 -9 -3 -5 4 3
5 0 13 -6 15 -9 4 -10 6 -1 6 6 1 14 -3 18 -8z m51 -36 c3 -8 -1 -22 -10 -30
-12 -12 -16 -13 -16 -3 0 8 -3 9 -8 3 -10 -14 -32 -17 -32 -4 0 6 9 13 20 16
11 3 20 12 20 19 0 19 19 18 26 -1z m-894 -41 c-14 -24 -21 -3 -9 26 8 20 11
22 14 8 2 -10 0 -25 -5 -34z m1218 37 c0 -5 -7 -12 -16 -15 -14 -5 -15 -4 -4
9 14 17 20 19 20 6z m-920 -42 c0 -5 -9 -9 -20 -9 -19 0 -26 11 -14 23 8 8 34
-3 34 -14z m-1066 -11 c-3 -13 -6 -29 -8 -37 -4 -18 -33 -34 -41 -21 -3 5 -4
14 0 19 3 6 -2 14 -11 19 -11 6 -13 11 -5 16 6 4 11 2 11 -3 0 -6 9 -2 20 9
26 26 40 25 34 -2z m1266 -9 c0 -5 -4 -9 -10 -9 -5 0 -10 7 -10 16 0 8 5 12
10 9 6 -3 10 -10 10 -16z m31 8 c-1 -12 -15 -9 -19 4 -3 6 1 10 8 8 6 -3 11
-8 11 -12z m-1411 -59 c0 -5 -6 -8 -14 -8 -16 0 -25 19 -18 38 3 9 8 8 18 -5
7 -10 14 -21 14 -25z m866 15 c-10 -10 -19 5 -10 18 6 11 8 11 12 0 2 -7 1
-15 -2 -18z m314 -3 c0 -17 -12 -40 -21 -40 -14 0 -11 30 4 31 10 0 10 2 0 6
-7 2 -13 9 -13 14 0 4 7 6 15 3 8 -4 15 -10 15 -14z m-1023 4 c-3 -3 -12 -4
-19 -1 -8 3 -5 6 6 6 11 1 17 -2 13 -5z m1488 -3 c3 -5 1 -12 -5 -16 -5 -3
-10 1 -10 9 0 18 6 21 15 7z m-633 -23 c-6 -6 -15 -8 -19 -4 -4 4 -1 11 7 16
19 12 27 3 12 -12z m1079 -1 c-13 -13 -26 -3 -16 12 3 6 11 8 17 5 6 -4 6 -10
-1 -17z m-870 -7 c1 -11 2 -26 3 -32 3 -19 -24 -47 -39 -42 -23 9 -24 41 -2
68 25 31 37 33 38 6z m-1503 -12 c-2 -6 -14 -15 -26 -19 -20 -8 -21 -6 -12 11
11 21 44 28 38 8z m1859 -1 c-5 -17 -43 -21 -49 -5 -4 9 4 14 24 15 19 2 28
-2 25 -10z m103 -8 c0 -5 -4 -9 -8 -9 -5 0 -9 -6 -9 -13 0 -8 6 -14 13 -14 7
0 11 4 8 9 -3 4 -1 8 5 8 18 0 22 -19 9 -39 -12 -20 -13 -20 -36 7 l-24 27 7
-27 c5 -20 2 -29 -13 -37 -16 -9 -21 -7 -25 9 -3 11 0 23 5 27 7 4 8 1 3 -8
-6 -11 -5 -11 5 -3 6 7 13 23 13 37 1 14 7 25 12 24 6 -1 9 3 8 10 -2 7 4 10
12 7 8 -4 15 -10 15 -15z m-231 -5 c4 3 8 -1 8 -9 0 -11 -4 -12 -14 -4 -7 6
-13 17 -12 23 0 7 2 6 6 -2 2 -6 8 -10 12 -8z m-44 -70 c-14 -16 -26 -7 -18
13 5 11 3 14 -6 8 -10 -6 -11 -3 -1 15 l12 22 12 -23 c8 -17 9 -27 1 -35z
m165 6 c0 -16 -5 -32 -11 -36 -17 -10 -30 18 -16 35 9 12 9 13 0 7 -16 -9 -17
6 -1 22 16 16 28 5 28 -28z m-230 20 c0 -5 -4 -10 -9 -10 -6 0 -13 5 -16 10
-3 6 1 10 9 10 9 0 16 -4 16 -10z m166 -13 c1 -7 5 -20 9 -29 5 -13 2 -18 -8
-18 -12 0 -15 9 -14 34 2 33 9 39 13 13z m-1880 1 c3 -4 3 -12 -1 -18 -7 -12
-35 4 -35 20 0 9 26 7 36 -2z m1687 -38 c-8 -8 -33 32 -27 42 4 6 12 -1 18
-14 7 -12 11 -25 9 -28z m-483 16 c0 -3 -4 -8 -10 -11 -5 -3 -10 -1 -10 4 0 6
5 11 10 11 6 0 10 -2 10 -4z m370 -15 c0 -11 -4 -22 -9 -25 -11 -7 -23 22 -15
35 9 16 24 10 24 -10z m504 -7 c3 -8 2 -12 -4 -9 -6 3 -10 10 -10 16 0 14 7
11 14 -7z m-44 -4 c0 -5 -4 -10 -10 -10 -5 0 -10 5 -10 10 0 6 5 10 10 10 6 0
10 -4 10 -10z m85 0 c-4 -6 -1 -19 7 -28 12 -15 11 -16 -4 -3 -20 15 -24 41
-7 41 5 0 7 -5 4 -10z m-511 -21 c-6 -11 -24 -2 -24 11 0 5 7 7 15 4 8 -4 12
-10 9 -15z m-589 1 c3 -5 1 -10 -4 -10 -6 0 -11 5 -11 10 0 6 2 10 4 10 3 0 8
-4 11 -10z m105 0 c0 -5 -4 -10 -10 -10 -5 0 -10 5 -10 10 0 6 5 10 10 10 6 0
10 -4 10 -10z m855 0 c3 -5 1 -10 -4 -10 -6 0 -11 5 -11 10 0 6 2 10 4 10 3 0
8 -4 11 -10z m90 -19 c3 -5 1 -12 -5 -16 -5 -3 -10 -13 -10 -21 0 -9 5 -12 11
-8 8 5 10 -1 7 -20 -3 -16 0 -33 9 -42 8 -8 10 -14 5 -14 -5 0 -9 -7 -9 -15 0
-8 4 -15 9 -15 4 0 8 -7 8 -15 0 -15 -29 -22 -31 -7 0 4 -2 17 -3 29 -2 13 -6
26 -9 29 -3 4 -1 16 5 27 11 21 10 21 -15 4 -22 -14 -27 -14 -37 -2 -10 12 -9
15 6 16 11 1 22 1 25 1 9 -1 7 32 -3 45 -5 7 -7 17 -3 23 8 13 32 13 40 1z
m-452 -23 c2 -7 2 -19 -1 -26 -3 -10 -7 -10 -19 0 -11 9 -16 9 -23 -2 -5 -9
-8 -4 -7 13 2 21 7 27 24 27 12 0 23 -6 26 -12z m-443 -18 c0 -5 -6 -10 -12
-13 -10 -3 -10 -7 1 -20 9 -12 10 -17 2 -17 -6 0 -17 -11 -23 -25 -6 -14 -15
-25 -20 -25 -14 0 -9 40 7 56 8 9 15 26 15 39 0 18 4 23 15 19 8 -4 15 -10 15
-14z m-100 2 c0 -13 -12 -22 -22 -16 -10 6 -1 24 13 24 5 0 9 -4 9 -8z m160
-3 c0 -5 -4 -7 -10 -4 -5 3 -10 1 -10 -4 0 -6 -4 -11 -10 -11 -5 0 -7 7 -4 15
7 17 34 21 34 4z m565 2 c3 -5 1 -12 -5 -16 -5 -3 -10 1 -10 9 0 18 6 21 15 7z
m-1705 -42 c0 -6 -4 -7 -10 -4 -5 3 -10 11 -10 16 0 6 5 7 10 4 6 -3 10 -11
10 -16z m1503 -21 c2 -7 0 -22 -6 -33 -10 -19 -10 -18 -19 4 -8 23 -3 41 12
41 4 0 10 -6 13 -12z m-523 -6 c0 -4 -9 -8 -20 -9 -11 -1 -18 2 -15 8 7 11 35
12 35 1z m-1050 -43 c0 -6 -4 -7 -10 -4 -5 3 -10 11 -10 16 0 6 5 7 10 4 6 -3
10 -11 10 -16z m1280 11 c0 -5 -2 -10 -4 -10 -3 0 -8 5 -11 10 -3 6 -1 10 4
10 6 0 11 -4 11 -10z m734 -21 c-3 -5 -10 -7 -15 -3 -5 3 -7 10 -3 15 3 5 10
7 15 3 5 -3 7 -10 3 -15z m-914 -8 c0 -22 -16 -36 -24 -22 -8 12 3 41 15 41 5
0 9 -9 9 -19z m154 -35 c-7 -29 -27 -30 -32 -2 -5 22 18 50 30 38 5 -5 6 -21
2 -36z m333 6 c7 -7 13 -10 13 -6 0 4 3 5 6 2 3 -4 1 -16 -5 -27 -9 -16 -8
-29 3 -56 8 -19 12 -35 7 -35 -14 0 -53 43 -44 49 11 8 17 44 5 37 -12 -7 -25
52 -15 67 4 7 8 6 11 -3 3 -8 11 -21 19 -28z m23 28 c0 -5 -4 -10 -10 -10 -5
0 -10 5 -10 10 0 6 5 10 10 10 6 0 10 -4 10 -10z m-405 -29 c-9 -8 -36 -10
-30 -2 2 4 11 8 20 8 8 0 13 -3 10 -6z m89 -6 c-4 -8 -8 -15 -10 -15 -2 0 -4
7 -4 15 0 8 4 15 10 15 5 0 7 -7 4 -15z m866 -10 c5 3 7 -4 5 -15 -7 -36 -16
-42 -36 -24 -18 16 -20 16 -37 1 -21 -20 -32 -22 -32 -6 0 5 4 7 10 4 6 -4 9
4 7 17 -2 19 3 23 26 24 15 1 27 -3 27 -7 0 -5 4 -9 10 -9 5 0 8 6 6 13 -1 6
-1 9 1 4 3 -4 9 -5 13 -2z m27 -37 c-3 -8 -6 -5 -6 6 -1 11 2 17 5 13 3 -3 4
-12 1 -19z m-952 -8 c3 -5 2 -10 -4 -10 -5 0 -13 5 -16 10 -3 6 -2 10 4 10 5
0 13 -4 16 -10z m1005 0 c12 -7 12 -12 3 -21 -9 -9 -10 -16 -2 -26 7 -7 8 -13
4 -13 -4 0 0 -12 10 -26 14 -22 15 -28 4 -35 -11 -7 -11 -9 1 -9 12 -1 11 -3
-3 -11 -25 -15 -39 -2 -37 35 4 62 2 65 -31 61 -17 -2 -39 -11 -48 -19 -10 -9
-26 -16 -37 -16 -19 1 -19 1 0 15 10 8 23 12 27 9 5 -3 9 -1 9 4 0 6 14 15 30
21 17 5 30 17 30 25 0 18 17 20 40 6z m157 -5 c8 -8 19 -13 24 -10 17 11 9 -1
-15 -24 l-24 -23 2 26 c2 15 -1 29 -5 32 -5 3 -9 0 -9 -7 0 -7 -3 -10 -6 -6
-6 6 3 27 12 27 3 0 12 -7 21 -15z m-1167 -35 c0 -5 -7 -10 -15 -10 -8 0 -15
5 -15 10 0 6 7 10 15 10 8 0 15 -4 15 -10z m380 -40 c0 -14 -28 -19 -33 -5 -3
7 -3 15 0 18 7 7 33 -3 33 -13z m580 11 c0 -5 -7 -12 -16 -15 -14 -5 -15 -4
-4 9 14 17 20 19 20 6z m-1130 -30 c0 -6 -4 -13 -10 -16 -5 -3 -10 1 -10 9 0
9 5 16 10 16 6 0 10 -4 10 -9z m1257 -7 c3 -8 1 -20 -6 -27 -8 -8 -11 -8 -11
0 0 6 -3 18 -6 27 -3 9 -1 16 5 16 7 0 14 -7 18 -16z m103 -24 c5 0 7 -7 4
-15 -11 -28 -24 -15 -23 23 1 23 3 28 6 15 2 -13 8 -23 13 -23z m-815 10 c-3
-5 -1 -10 5 -10 6 0 9 -4 6 -9 -3 -5 1 -12 10 -15 19 -7 9 -26 -13 -26 -9 0
-13 3 -10 6 3 4 2 15 -4 26 -9 17 -5 38 7 38 3 0 2 -4 -1 -10z m-304 -24 c-7
-8 -10 -20 -7 -25 4 -6 -3 -15 -14 -21 -15 -8 -20 -8 -20 1 0 12 43 68 49 63
2 -2 -2 -10 -8 -18z m887 2 c2 -8 -4 -15 -13 -15 -8 0 -15 9 -15 20 0 22 23
18 28 -5z m167 -18 c-3 -5 4 -11 15 -15 23 -7 26 -21 6 -28 -8 -3 -22 -20 -31
-38 -9 -17 -12 -28 -6 -25 6 4 11 2 11 -3 0 -15 -11 -13 -35 5 -17 12 -18 16
-5 24 8 5 18 6 24 3 6 -4 6 1 2 13 -15 37 -24 73 -20 77 8 8 44 -5 39 -13z
m-1312 -10 c-3 -11 -9 -20 -14 -20 -11 0 -11 3 -3 24 9 23 23 20 17 -4z m-52
-13 c-10 -9 -11 -8 -5 6 3 10 9 15 12 12 3 -3 0 -11 -7 -18z m339 13 c0 -5 -5
-10 -11 -10 -5 0 -7 5 -4 10 3 6 8 10 11 10 2 0 4 -4 4 -10z m-150 -10 c0 -5
-2 -10 -4 -10 -3 0 -8 5 -11 10 -3 6 -1 10 4 10 6 0 11 -4 11 -10z m67 4 c-3
-3 -12 -4 -19 -1 -8 3 -5 6 6 6 11 1 17 -2 13 -5z m143 -4 c0 -5 -5 -10 -11
-10 -5 0 -7 5 -4 10 3 6 8 10 11 10 2 0 4 -4 4 -10z m870 -12 c0 -24 -15 -37
-30 -28 -11 7 -11 11 -1 24 16 19 31 21 31 4z m40 -23 c0 -8 -4 -17 -10 -20
-6 -4 -10 5 -10 20 0 15 4 24 10 20 6 -3 10 -12 10 -20z m-1254 -10 c17 -16
14 -18 -10 -9 -9 3 -16 10 -16 15 0 13 9 11 26 -6z m-16 -45 c0 -4 -6 -10 -14
-13 -10 -4 -14 0 -13 12 1 18 27 18 27 1z m200 10 c0 -5 -4 -10 -10 -10 -5 0
-10 5 -10 10 0 6 5 10 10 10 6 0 10 -4 10 -10z m1030 0 c0 -5 -2 -10 -4 -10
-3 0 -8 5 -11 10 -3 6 -1 10 4 10 6 0 11 -4 11 -10z m118 -8 c6 -18 -15 -14
-22 4 -4 10 -1 14 6 12 6 -2 14 -10 16 -16z m-744 -37 c-4 -8 -10 -12 -15 -9
-11 6 -2 24 11 24 5 0 7 -7 4 -15z m646 -17 c0 -5 -4 -8 -10 -8 -5 0 -10 10
-10 23 0 18 2 19 10 7 5 -8 10 -18 10 -22z m88 8 c-13 -13 -24 -22 -26 -21 -7
6 24 45 36 45 8 0 4 -9 -10 -24z m-183 -36 c-3 -5 -10 -10 -16 -10 -5 0 -9 5
-9 10 0 6 7 10 16 10 8 0 12 -4 9 -10z m-525 -4 c0 -3 -4 -8 -10 -11 -5 -3
-10 -1 -10 4 0 6 5 11 10 11 6 0 10 -2 10 -4z m710 -40 c0 -11 -19 -15 -25 -6
-3 5 1 10 9 10 9 0 16 -2 16 -4z m-52 -32 c-9 -9 -21 -13 -28 -9 -14 9 5 25
30 25 12 0 12 -3 -2 -16z m92 6 c0 -5 -2 -10 -4 -10 -3 0 -8 5 -11 10 -3 6 -1
10 4 10 6 0 11 -4 11 -10z m-220 -4 c0 -2 -7 -7 -16 -10 -8 -3 -12 -2 -9 4 6
10 25 14 25 6z m70 -37 c0 -5 -4 -9 -10 -9 -5 0 -10 7 -10 16 0 8 5 12 10 9 6
-3 10 -10 10 -16z m-2 -43 c-7 -8 -15 -12 -17 -11 -5 6 10 25 20 25 5 0 4 -6
-3 -14z m-583 -16 c3 -5 1 -10 -4 -10 -6 0 -11 5 -11 10 0 6 2 10 4 10 3 0 8
-4 11 -10z m-2148 -923 c0 -7 -6 -18 -14 -25 -11 -10 -13 -8 -13 13 0 14 6 25
13 25 8 0 14 -6 14 -13z m-37 -81 c-6 -6 -10 -6 -10 0 0 5 -5 2 -10 -6 -7 -11
-8 -9 -6 11 1 13 6 31 11 39 6 10 10 8 17 -10 5 -14 5 -27 -2 -34z"/>
<path d="M3363 4240 c1 -11 5 -20 9 -20 11 0 10 28 -1 35 -6 3 -9 -4 -8 -15z"/>
<path d="M3082 4217 c-8 -10 -6 -13 8 -14 13 -1 17 3 13 13 -6 17 -8 17 -21 1z"/>
<path d="M3210 4203 c0 -25 1 -26 16 -11 9 9 13 21 10 27 -13 20 -26 11 -26
-16z"/>
<path d="M3053 4167 c4 -10 7 -22 7 -26 0 -9 37 -7 46 2 4 4 1 7 -6 7 -7 0
-22 8 -33 18 -20 16 -20 16 -14 -1z"/>
<path d="M3100 4107 c-10 -16 -14 -17 -21 -6 -7 12 -10 12 -21 0 -11 -11 -11
-14 0 -18 10 -4 10 -8 1 -19 -6 -8 -7 -14 -2 -14 12 0 14 -38 2 -45 -5 -4 -9
-11 -9 -16 0 -6 5 -7 10 -4 6 3 10 1 10 -4 0 -18 -5 -26 -13 -23 -4 1 -2 -7 5
-18 25 -40 38 -14 38 73 0 31 4 40 20 44 23 6 22 24 -1 31 -11 3 -11 2 1 -7
13 -9 13 -11 -2 -11 -25 0 -23 26 2 33 23 6 27 24 6 24 -7 0 -19 -9 -26 -20z"/>
<path d="M2977 4103 c-15 -14 -6 -23 24 -23 18 0 28 4 24 10 -4 6 -11 8 -16 5
-5 -4 -9 -1 -9 4 0 12 -13 14 -23 4z"/>
<path d="M3410 4079 c0 -5 5 -7 10 -4 6 3 10 8 10 11 0 2 -4 4 -10 4 -5 0 -10
-5 -10 -11z"/>
<path d="M2987 4043 c-3 -15 -2 -32 3 -37 22 -22 67 27 49 55 -8 12 -10 12
-19 -1 -8 -12 -12 -13 -19 -2 -6 10 -10 6 -14 -15z m43 -12 c0 -6 -4 -12 -8
-15 -5 -3 -9 1 -9 9 0 8 4 15 9 15 4 0 8 -4 8 -9z"/>
<path d="M3190 4050 c-14 -27 -6 -38 14 -18 8 9 11 20 6 28 -6 9 -11 7 -20
-10z"/>
<path d="M2915 4039 c-4 -6 -5 -13 -2 -16 7 -7 27 6 27 18 0 12 -17 12 -25 -2z"/>
<path d="M3110 4010 c0 -9 14 -14 33 -11 4 0 7 -3 7 -9 0 -5 9 -10 20 -10 11
0 20 5 20 11 0 6 -6 9 -14 6 -8 -3 -20 1 -26 9 -14 16 -40 19 -40 4z"/>
<path d="M3350 3970 c0 -5 5 -10 11 -10 5 0 7 5 4 10 -3 6 -8 10 -11 10 -2 0
-4 -4 -4 -10z"/>
<path d="M3190 3950 c-8 -5 -11 -12 -7 -16 4 -4 15 0 24 9 18 18 8 23 -17 7z"/>
<path d="M2942 3929 c-8 -12 -9 -18 -3 -14 6 3 11 1 11 -6 0 -10 3 -10 11 -2
7 7 8 17 2 27 -7 13 -10 13 -21 -5z"/>
<path d="M3250 3912 c0 -12 3 -12 15 -2 8 7 15 13 15 15 0 1 -7 2 -15 2 -8 0
-15 -7 -15 -15z"/>
<path d="M3122 3908 c-17 -17 -15 -24 7 -24 10 0 18 6 17 13 -3 20 -11 24 -24
11z"/>
<path d="M3182 3894 c-7 -8 -8 -14 -3 -14 10 0 25 19 20 25 -2 1 -10 -3 -17
-11z"/>
<path d="M2943 3883 c-18 -7 -16 -22 2 -19 22 3 44 26 25 25 -8 0 -21 -3 -27
-6z"/>
<path d="M3266 3815 c4 -8 8 -15 10 -15 2 0 4 7 4 15 0 8 -4 15 -10 15 -5 0
-7 -7 -4 -15z"/>
<path d="M3209 3788 c4 -12 13 -24 20 -26 9 -3 9 2 0 22 -15 32 -32 35 -20 4z"/>
<path d="M3230 3590 c0 -5 5 -10 11 -10 5 0 7 5 4 10 -3 6 -8 10 -11 10 -2 0
-4 -4 -4 -10z"/>
<path d="M3290 3555 c0 -8 4 -15 10 -15 5 0 7 7 4 15 -4 8 -8 15 -10 15 -2 0
-4 -7 -4 -15z"/>
<path d="M3170 3443 c-18 -20 -19 -23 -4 -10 12 10 27 17 34 15 7 -2 15 4 17
12 4 12 3 12 -5 1 -7 -9 -11 -10 -13 -2 -3 7 -15 1 -29 -16z"/>
<path d="M3210 3421 c0 -5 7 -11 14 -14 10 -4 13 -1 9 9 -6 15 -23 19 -23 5z"/>
<path d="M3166 3397 c3 -10 9 -15 12 -12 3 3 0 11 -7 18 -10 9 -11 8 -5 -6z"/>
<path d="M3236 3365 c-16 -16 -15 -19 1 -48 23 -38 39 -32 35 13 -5 45 -15 55
-36 35z m11 -27 c-3 -8 -6 -5 -6 6 -1 11 2 17 5 13 3 -3 4 -12 1 -19z"/>
<path d="M3170 3360 c0 -5 5 -10 11 -10 5 0 7 5 4 10 -3 6 -8 10 -11 10 -2 0
-4 -4 -4 -10z"/>
<path d="M3295 3340 c-4 -6 -3 -16 3 -22 13 -13 23 4 13 21 -7 10 -10 10 -16
1z"/>
<path d="M3305 3270 c-3 -5 -1 -10 4 -10 6 0 11 5 11 10 0 6 -2 10 -4 10 -3 0
-8 -4 -11 -10z"/>
<path d="M3070 3235 c0 -13 33 -55 44 -55 8 0 8 2 0 8 -6 4 -10 17 -9 30 1 15
-4 22 -17 22 -10 0 -18 -2 -18 -5z"/>
<path d="M3227 3203 c-10 -9 -9 -23 1 -23 5 0 9 7 9 15 0 17 -1 18 -10 8z"/>
<path d="M3230 2980 c0 -13 7 -20 20 -20 22 0 18 25 -6 34 -9 3 -14 -1 -14
-14z"/>
<path d="M4485 5080 c21 -24 26 -25 19 -6 -3 8 -13 17 -22 21 -13 5 -13 2 3
-15z"/>
<path d="M4795 4950 c-3 -5 1 -10 9 -10 8 0 18 5 21 10 3 6 -1 10 -9 10 -8 0
-18 -4 -21 -10z"/>
<path d="M3277 4653 c-4 -3 2 -13 14 -21 11 -8 23 -11 26 -8 4 3 1 6 -5 6 -7
0 -12 7 -12 15 0 16 -12 20 -23 8z"/>
<path d="M3267 4588 c-19 -50 -19 -54 -2 -37 9 9 15 25 13 35 -5 18 -5 18 -11
2z"/>
<path d="M3210 4518 c0 -4 7 -8 15 -8 8 0 15 4 15 8 0 5 -7 9 -15 9 -8 0 -15
-4 -15 -9z"/>
<path d="M2320 4435 c0 -8 7 -15 16 -15 14 0 14 3 4 15 -7 8 -14 15 -16 15 -2
0 -4 -7 -4 -15z"/>
<path d="M3130 4380 c0 -5 7 -7 15 -4 8 4 15 8 15 10 0 2 -7 4 -15 4 -8 0 -15
-4 -15 -10z"/>
<path d="M1732 4273 c-49 -11 -61 -17 -52 -27 10 -13 0 -29 -25 -38 -11 -3
-17 -28 -7 -28 4 0 14 4 21 9 9 6 22 6 31 1 9 -5 22 -5 29 0 10 6 9 12 -8 29
-22 22 -29 47 -10 35 7 -4 24 -8 38 -9 14 -1 34 -3 44 -3 9 -1 16 -8 15 -14
-2 -7 3 -12 10 -10 6 1 12 -3 12 -10 0 -6 3 -8 7 -5 3 4 -6 21 -22 37 l-28 29
24 10 c38 15 -4 12 -79 -6z"/>
<path d="M1750 4214 c0 -14 3 -14 15 -4 8 7 15 14 15 16 0 2 -7 4 -15 4 -8 0
-15 -7 -15 -16z"/>
<path d="M1650 4156 c0 -14 34 -28 44 -18 6 5 -24 31 -36 32 -5 0 -8 -6 -8
-14z"/>
<path d="M1745 4152 c-3 -9 0 -12 9 -9 8 3 20 -1 27 -9 10 -12 9 -13 -6 -8
-12 5 -16 3 -13 -6 8 -26 33 -18 34 11 1 16 -2 26 -7 23 -5 -3 -9 -1 -9 4 0
14 -29 10 -35 -6z"/>
<path d="M1815 4160 c4 -6 11 -8 16 -5 14 9 11 15 -7 15 -8 0 -12 -5 -9 -10z"/>
<path d="M1311 4141 c-7 -5 -9 -11 -5 -14 5 -3 15 1 22 9 14 16 5 18 -17 5z"/>
<path d="M1425 4140 c-3 -5 -21 -8 -41 -6 -39 3 -47 -3 -34 -24 7 -12 16 -12
52 -3 37 10 45 10 55 -4 7 -9 23 -18 35 -20 12 -2 27 -8 34 -14 8 -6 14 -7 18
0 4 6 -3 15 -14 21 -11 6 -20 8 -20 5 0 -3 -10 3 -22 15 -12 11 -26 20 -30 20
-5 0 -6 5 -3 10 3 6 -1 10 -9 10 -8 0 -17 -4 -21 -10z"/>
<path d="M4351 4126 c-9 -10 -7 -25 9 -61 18 -41 22 -46 36 -34 10 8 12 15 5
17 -6 2 -9 8 -5 13 3 5 0 9 -6 9 -6 0 -8 5 -4 12 5 8 2 9 -9 5 -21 -8 -21 -3
-1 17 8 9 12 20 9 26 -9 14 -20 13 -34 -4z"/>
<path d="M1713 4075 c0 -11 4 -12 14 -4 7 6 13 13 13 15 0 2 -6 4 -13 4 -8 0
-14 -7 -14 -15z"/>
<path d="M1441 4036 c-9 -11 -8 -17 8 -28 12 -8 18 -17 16 -20 -3 -3 3 -8 15
-11 24 -6 27 14 6 33 -8 6 -12 18 -9 26 7 18 -21 18 -36 0z"/>
<path d="M1773 4035 c0 -8 4 -12 9 -9 4 3 8 9 8 15 0 5 -4 9 -8 9 -5 0 -9 -7
-9 -15z"/>
<path d="M1710 4026 c0 -2 7 -9 15 -16 12 -10 15 -10 15 4 0 9 -7 16 -15 16
-8 0 -15 -2 -15 -4z"/>
<path d="M1005 3950 c-10 -11 -15 -23 -10 -28 4 -4 10 -1 12 6 3 6 12 12 21
12 14 0 14 2 3 9 -11 7 -11 9 0 14 8 3 9 6 3 6 -6 1 -19 -8 -29 -19z"/>
<path d="M1730 3774 c0 -17 22 -14 28 4 2 7 -3 12 -12 12 -9 0 -16 -7 -16 -16z"/>
<path d="M1636 3672 c-3 -4 4 -9 15 -9 23 -2 25 3 4 10 -8 4 -16 3 -19 -1z"/>
<path d="M902 3434 c-20 -22 -10 -37 13 -20 13 10 17 18 10 24 -7 7 -15 5 -23
-4z"/>
<path d="M730 2521 c0 -6 4 -13 10 -16 6 -3 7 1 4 9 -7 18 -14 21 -14 7z"/>
<path d="M690 2486 c0 -2 7 -7 16 -10 8 -3 12 -2 9 4 -6 10 -25 14 -25 6z"/>
<path d="M607 2406 c-4 -10 -7 -25 -6 -34 0 -11 4 -9 10 7 5 13 8 29 6 35 -2
5 -6 2 -10 -8z"/>
</g>
</svg>
